<?xml version="1.0" encoding="UTF-8"?><svg id="a" xmlns="http://www.w3.org/2000/svg" viewBox="0 0 3613.63 2000"><rect width="3500" height="2000" style="fill:#fff;"/><path d="M3067.64,55.1l177.75,3.36,349.91,415.77-184-10.79L3067.64,55.1Zm-9.03,4.8l-140.98,504.19,153.22,182.06,330.96-278.44L3058.61,59.9Zm22.87,690.37l181.76,11.92,330.48-278.03-183.17-10.74-329.07,276.85Zm-12.49,9.2l197.61,12.96,339.37-285.51,7.66-6.44-6.44-7.65L3250.12,48.56l-197.68-3.74-145.86,521.67,162.41,192.99Z" style="fill:#00111f; fill-rule:evenodd;"/><path d="M2865.89,211.14l2.59,177.85-403.84,362.37,4.62-184.32,396.63-355.89Zm-5.1-8.86l-396.1,355.42-289.41-322.49,176.82-158.65,508.69,125.73Zm-689.27,43.7l287.74,320.63-4.59,183.41-288.97-322,5.82-182.04Zm-9.61-12.21l-6.33,197.94,296.76,330.68,6.68,7.44,7.44-6.68,412.09-369.76-2.89-197.74-526.3-130.08-187.45,168.2Z" style="fill:#00111f; fill-rule:evenodd;"/><path d="M2159.19,865.75l.98,67.15-169.07,151.7,1.74-69.59,166.35-149.26Zm-5.1-8.86l-165.81,148.79-121.78-135.71,73.54-65.99,214.05,52.91Zm11.08-7.56l-1.18-1.31-.9,.8-225.79-55.81-82.51,74.04-.14,4.26-.22,.19,.21,.23-2.64,82.45,126.89,141.39,1.88,2.09-.07,2.74,2.58,.06,2.29,2.55,2.7-2.42,2.43,.06,.06-2.3,2.25-2.02,177.22-159.02-1.17-80.41,1.61-1.44-1.66-1.84-.05-3.35-3.79-.94Zm-184.04,233.77l-119.01-132.61,2.18-67.99,118.55,132.11-1.72,68.5Z" style="fill:#00111f; fill-rule:evenodd;"/><path d="M278.3,20.64l172.63,42.64,250.93,483.03-177.11-51.26L278.3,20.64Zm-9.88,2.68L21.28,483.86l109.89,211.53,383.38-198.28L268.42,23.32Zm-127.81,678.45l174.76,51.89,382.85-198.01-176.39-51.05-381.22,197.17Zm-14.16,6.22l189.95,56.4,393.13-203.33,8.88-4.59-4.61-8.87L457.72,54.66,265.7,7.24,9.97,483.78l116.48,224.21Z" style="fill:#00111f; fill-rule:evenodd;"/><path d="M2658.9,961.72l146.98,35.84,215.01,414.81-150.77-43.17-211.22-407.48Zm-6.11-11.78v-.03s-.05,.02-.05,.02l-6.39-1.56-222.83,412.93,100.4,193.69,164.5,48.33,340.07-176.28,2.6-1.34,.24,.07,.06-.23,5.98-3.1-4.6-8.88-220.1-424.63-159.88-38.99Zm364.3,471.74l-149.88-42.91-328.33,170.19,148.5,43.62,329.71-170.9Zm-488.19,121.19l-94.07-181.49,214.21-396.95,210.89,406.85-331.03,171.59Z" style="fill:#00111f; fill-rule:evenodd;"/><path d="M1155.9,860.27l38.42,110.36-183.01,322.2-35.26-115.91,179.85-316.65Zm-7.64-6.8l-179.5,316.04-256.23-145.04,79.97-140.8,355.76-30.19Zm13.75-6.08l-1.73-4.97-373.88,31.73-86.42,152.15,38.97,131.37,264.19,149.54,2.53,1.43,.35,1.18,1.12-.34,4.7,2.66,2.81-4.95,.95-.28-.28-.9,1.46-2.57,188.48-331.84-42.79-122.91,.45-.79-.91-.51Zm-160.57,447.38l-35.01-115.09-253-143.2,33.97,114.5,254.04,143.79Z" style="fill:#00111f; fill-rule:evenodd;"/></svg>