<svg viewBox="0 0 2952 1494" fill="none" xmlns="http://www.w3.org/2000/svg">
<g>
<g opacity="0.08">
<rect x="2521.54" y="1120.93" width="32.3482" height="32.3482" transform="rotate(-180 2521.54 1120.93)" fill="#E0E9FF"/>
<rect x="2405.77" y="1120.93" width="32.3482" height="32.3482" transform="rotate(-180 2405.77 1120.93)" fill="#E0E9FF"/>
<rect x="2290" y="1120.93" width="32.3482" height="32.3482" transform="rotate(-180 2290 1120.93)" fill="#5C84E2"/>
<rect x="2174.23" y="1120.93" width="32.3482" height="32.3482" transform="rotate(-180 2174.23 1120.93)" fill="#E0E9FF"/>
<rect x="2058.46" y="1120.93" width="32.3482" height="32.3482" transform="rotate(-180 2058.46 1120.93)" fill="#E0E9FF"/>
<rect x="1942.68" y="1120.93" width="32.3482" height="32.3482" transform="rotate(-180 1942.68 1120.93)" fill="#E0E9FF"/>
<rect x="1826.91" y="1120.93" width="32.3482" height="32.3482" transform="rotate(-180 1826.91 1120.93)" fill="#E0E9FF"/>
<rect x="1711.14" y="1120.93" width="32.3482" height="32.3482" transform="rotate(-180 1711.14 1120.93)" fill="#E0E9FF"/>
<rect x="2521.54" y="1005.16" width="32.3482" height="32.3482" transform="rotate(-180 2521.54 1005.16)" fill="#E0E9FF"/>
<rect x="2405.77" y="1005.16" width="32.3482" height="32.3482" transform="rotate(-180 2405.77 1005.16)" fill="#5C84E2"/>
<rect x="2290" y="1005.16" width="32.3482" height="32.3482" transform="rotate(-180 2290 1005.16)" fill="#5C84E2"/>
<rect x="2174.23" y="1005.16" width="32.3482" height="32.3482" transform="rotate(-180 2174.23 1005.16)" fill="#E0E9FF"/>
<rect x="2058.46" y="1005.16" width="32.3482" height="32.3482" transform="rotate(-180 2058.46 1005.16)" fill="#E0E9FF"/>
<rect x="1942.68" y="1005.16" width="32.3482" height="32.3482" transform="rotate(-180 1942.68 1005.16)" fill="#5C84E2"/>
<rect x="1826.91" y="1005.16" width="32.3482" height="32.3482" transform="rotate(-180 1826.91 1005.16)" fill="#E0E9FF"/>
<rect x="2521.54" y="889.39" width="32.3482" height="32.3482" transform="rotate(-180 2521.54 889.39)" fill="#E0E9FF"/>
<rect x="2405.77" y="889.39" width="32.3482" height="32.3482" transform="rotate(-180 2405.77 889.39)" fill="#5C84E2"/>
<rect x="2290" y="889.39" width="32.3482" height="32.3482" transform="rotate(-180 2290 889.39)" fill="#5C84E2"/>
<rect x="2174.23" y="889.39" width="32.3482" height="32.3482" transform="rotate(-180 2174.23 889.39)" fill="#E0E9FF"/>
<rect x="2058.46" y="889.39" width="32.3482" height="32.3482" transform="rotate(-180 2058.46 889.39)" fill="#E0E9FF"/>
<rect x="1942.68" y="889.39" width="32.3482" height="32.3482" transform="rotate(-180 1942.68 889.39)" fill="#E0E9FF"/>
<rect x="2405.77" y="773.617" width="32.3482" height="32.3482" transform="rotate(-180 2405.77 773.617)" fill="#E0E9FF"/>
<rect x="2290" y="773.617" width="32.3482" height="32.3482" transform="rotate(-180 2290 773.617)" fill="#E0E9FF"/>
<rect x="2174.23" y="773.617" width="32.3482" height="32.3482" transform="rotate(-180 2174.23 773.617)" fill="#E0E9FF"/>
<rect x="2058.46" y="773.617" width="32.3482" height="32.3482" transform="rotate(-180 2058.46 773.617)" fill="#E0E9FF"/>
<rect x="2521.54" y="657.845" width="32.3482" height="32.3482" transform="rotate(-180 2521.54 657.845)" fill="#E0E9FF"/>
<rect x="2405.77" y="657.845" width="32.3482" height="32.3482" transform="rotate(-180 2405.77 657.845)" fill="#E0E9FF"/>
<rect x="2290" y="657.845" width="32.3482" height="32.3482" transform="rotate(-180 2290 657.845)" fill="#E0E9FF"/>
<rect x="2174.23" y="657.845" width="32.3482" height="32.3482" transform="rotate(-180 2174.23 657.845)" fill="#5C84E2"/>
<rect x="2521.54" y="542.072" width="32.3482" height="32.3482" transform="rotate(-180 2521.54 542.072)" fill="#E0E9FF"/>
<rect x="2405.77" y="542.072" width="32.3482" height="32.3482" transform="rotate(-180 2405.77 542.072)" fill="#5C84E2"/>
<rect x="2290" y="542.072" width="32.3482" height="32.3482" transform="rotate(-180 2290 542.072)" fill="#E0E9FF"/>
<rect x="2521.54" y="426.3" width="32.3482" height="32.3482" transform="rotate(-180 2521.54 426.3)" fill="#E0E9FF"/>
<rect x="2405.77" y="426.3" width="32.3482" height="32.3482" transform="rotate(-180 2405.77 426.3)" fill="#E0E9FF"/>
<rect x="2521.54" y="310.527" width="32.3482" height="32.3482" transform="rotate(-180 2521.54 310.527)" fill="#E0E9FF"/>
<rect x="2521.54" y="1178.82" width="32.3482" height="32.3482" transform="rotate(-180 2521.54 1178.82)" fill="#E0E9FF"/>
<rect x="2405.77" y="1178.82" width="32.3482" height="32.3482" transform="rotate(-180 2405.77 1178.82)" fill="#E0E9FF"/>
<rect x="2290" y="1178.82" width="32.3482" height="32.3482" transform="rotate(-180 2290 1178.82)" fill="#E0E9FF"/>
<rect x="2174.23" y="1178.82" width="32.3482" height="32.3482" transform="rotate(-180 2174.23 1178.82)" fill="#E0E9FF"/>
<rect x="2058.46" y="1178.82" width="32.3482" height="32.3482" transform="rotate(-180 2058.46 1178.82)" fill="#E0E9FF"/>
<rect x="1942.68" y="1178.82" width="32.3482" height="32.3482" transform="rotate(-180 1942.68 1178.82)" fill="#E0E9FF"/>
<rect x="1826.91" y="1178.82" width="32.3482" height="32.3482" transform="rotate(-180 1826.91 1178.82)" fill="#5C84E2"/>
<rect x="1711.14" y="1178.82" width="32.3482" height="32.3482" transform="rotate(-180 1711.14 1178.82)" fill="#E0E9FF"/>
<rect x="2521.54" y="1063.05" width="32.3482" height="32.3482" transform="rotate(-180 2521.54 1063.05)" fill="#E0E9FF"/>
<rect x="2405.77" y="1063.05" width="32.3482" height="32.3482" transform="rotate(-180 2405.77 1063.05)" fill="#E0E9FF"/>
<rect x="2290" y="1063.05" width="32.3482" height="32.3482" transform="rotate(-180 2290 1063.05)" fill="#E0E9FF"/>
<rect x="2174.23" y="1063.05" width="32.3482" height="32.3482" transform="rotate(-180 2174.23 1063.05)" fill="#E0E9FF"/>
<rect x="2058.46" y="1063.05" width="32.3482" height="32.3482" transform="rotate(-180 2058.46 1063.05)" fill="#E0E9FF"/>
<rect x="1942.68" y="1063.05" width="32.3482" height="32.3482" transform="rotate(-180 1942.68 1063.05)" fill="#E0E9FF"/>
<rect x="1826.91" y="1063.05" width="32.3482" height="32.3482" transform="rotate(-180 1826.91 1063.05)" fill="#E0E9FF"/>
<rect x="2521.54" y="947.276" width="32.3482" height="32.3482" transform="rotate(-180 2521.54 947.276)" fill="#E0E9FF"/>
<rect x="2405.77" y="947.276" width="32.3482" height="32.3482" transform="rotate(-180 2405.77 947.276)" fill="#E0E9FF"/>
<rect x="2290" y="947.276" width="32.3482" height="32.3482" transform="rotate(-180 2290 947.276)" fill="#E0E9FF"/>
<rect x="2058.46" y="947.276" width="32.3482" height="32.3482" transform="rotate(-180 2058.46 947.276)" fill="#E0E9FF"/>
<rect x="1942.68" y="947.276" width="32.3482" height="32.3482" transform="rotate(-180 1942.68 947.276)" fill="#E0E9FF"/>
<rect x="2521.54" y="831.503" width="32.3482" height="32.3482" transform="rotate(-180 2521.54 831.503)" fill="#E0E9FF"/>
<rect x="2405.77" y="831.503" width="32.3482" height="32.3482" transform="rotate(-180 2405.77 831.503)" fill="#E0E9FF"/>
<rect x="2290" y="831.503" width="32.3482" height="32.3482" transform="rotate(-180 2290 831.503)" fill="#E0E9FF"/>
<rect x="2174.23" y="831.503" width="32.3482" height="32.3482" transform="rotate(-180 2174.23 831.503)" fill="#E0E9FF"/>
<rect x="2058.46" y="831.503" width="32.3482" height="32.3482" transform="rotate(-180 2058.46 831.503)" fill="#E0E9FF"/>
<rect x="2521.54" y="715.731" width="32.3482" height="32.3482" transform="rotate(-180 2521.54 715.731)" fill="#E0E9FF"/>
<rect x="2405.77" y="715.731" width="32.3482" height="32.3482" transform="rotate(-180 2405.77 715.731)" fill="#E0E9FF"/>
<rect x="2290" y="715.731" width="32.3482" height="32.3482" transform="rotate(-180 2290 715.731)" fill="#5C84E2"/>
<rect x="2174.23" y="715.731" width="32.3482" height="32.3482" transform="rotate(-180 2174.23 715.731)" fill="#E0E9FF"/>
<rect x="2521.54" y="599.959" width="32.3482" height="32.3482" transform="rotate(-180 2521.54 599.959)" fill="#E0E9FF"/>
<rect x="2405.77" y="599.959" width="32.3482" height="32.3482" transform="rotate(-180 2405.77 599.959)" fill="#E0E9FF"/>
<rect x="2290" y="599.959" width="32.3482" height="32.3482" transform="rotate(-180 2290 599.959)" fill="#E0E9FF"/>
<rect x="2521.54" y="484.186" width="32.3482" height="32.3482" transform="rotate(-180 2521.54 484.186)" fill="#E0E9FF"/>
<rect x="2405.77" y="484.186" width="32.3482" height="32.3482" transform="rotate(-180 2405.77 484.186)" fill="#E0E9FF"/>
<rect x="2521.54" y="368.414" width="32.3482" height="32.3482" transform="rotate(-180 2521.54 368.414)" fill="#E0E9FF"/>
<rect x="2463.66" y="1120.93" width="32.3482" height="32.3482" transform="rotate(-180 2463.66 1120.93)" fill="#96B2F4"/>
<rect x="2347.89" y="1120.93" width="32.3482" height="32.3482" transform="rotate(-180 2347.89 1120.93)" fill="#E0E9FF"/>
<rect x="2232.11" y="1120.93" width="32.3482" height="32.3482" transform="rotate(-180 2232.11 1120.93)" fill="#E0E9FF"/>
<rect x="2116.34" y="1120.93" width="32.3482" height="32.3482" transform="rotate(-180 2116.34 1120.93)" fill="#96B2F4"/>
<rect x="2000.57" y="1120.93" width="32.3482" height="32.3482" transform="rotate(-180 2000.57 1120.93)" fill="#E0E9FF"/>
<rect x="1769.02" y="1120.93" width="32.3482" height="32.3482" transform="rotate(-180 1769.02 1120.93)" fill="#5C84E2"/>
<rect x="2463.66" y="1005.16" width="32.3482" height="32.3482" transform="rotate(-180 2463.66 1005.16)" fill="#E0E9FF"/>
<rect x="2347.89" y="1005.16" width="32.3482" height="32.3482" transform="rotate(-180 2347.89 1005.16)" fill="#E0E9FF"/>
<rect x="2232.11" y="1005.16" width="32.3482" height="32.3482" transform="rotate(-180 2232.11 1005.16)" fill="#E0E9FF"/>
<rect x="2116.34" y="1005.16" width="32.3482" height="32.3482" transform="rotate(-180 2116.34 1005.16)" fill="#E0E9FF"/>
<rect x="2000.57" y="1005.16" width="32.3482" height="32.3482" transform="rotate(-180 2000.57 1005.16)" fill="#E0E9FF"/>
<rect x="1884.8" y="1005.16" width="32.3482" height="32.3482" transform="rotate(-180 1884.8 1005.16)" fill="#E0E9FF"/>
<rect x="2463.66" y="889.39" width="32.3482" height="32.3482" transform="rotate(-180 2463.66 889.39)" fill="#E0E9FF"/>
<rect x="2347.89" y="889.39" width="32.3482" height="32.3482" transform="rotate(-180 2347.89 889.39)" fill="#E0E9FF"/>
<rect x="2232.11" y="889.39" width="32.3482" height="32.3482" transform="rotate(-180 2232.11 889.39)" fill="#E0E9FF"/>
<rect x="2116.34" y="889.39" width="32.3482" height="32.3482" transform="rotate(-180 2116.34 889.39)" fill="#E0E9FF"/>
<rect x="2000.57" y="889.39" width="32.3482" height="32.3482" transform="rotate(-180 2000.57 889.39)" fill="#E0E9FF"/>
<rect x="2463.66" y="773.617" width="32.3482" height="32.3482" transform="rotate(-180 2463.66 773.617)" fill="#E0E9FF"/>
<rect x="2347.89" y="773.617" width="32.3482" height="32.3482" transform="rotate(-180 2347.89 773.617)" fill="#5C84E2"/>
<rect x="2232.11" y="773.617" width="32.3482" height="32.3482" transform="rotate(-180 2232.11 773.617)" fill="#E0E9FF"/>
<rect x="2116.34" y="773.617" width="32.3482" height="32.3482" transform="rotate(-180 2116.34 773.617)" fill="#E0E9FF"/>
<rect x="2463.66" y="657.845" width="32.3482" height="32.3482" transform="rotate(-180 2463.66 657.845)" fill="#E0E9FF"/>
<rect x="2347.89" y="657.845" width="32.3482" height="32.3482" transform="rotate(-180 2347.89 657.845)" fill="#E0E9FF"/>
<rect x="2232.11" y="657.845" width="32.3482" height="32.3482" transform="rotate(-180 2232.11 657.845)" fill="#E0E9FF"/>
<rect x="2463.66" y="542.072" width="32.3482" height="32.3482" transform="rotate(-180 2463.66 542.072)" fill="#E0E9FF"/>
<rect x="2347.89" y="542.072" width="32.3482" height="32.3482" transform="rotate(-180 2347.89 542.072)" fill="#E0E9FF"/>
<rect x="2463.66" y="426.3" width="32.3482" height="32.3482" transform="rotate(-180 2463.66 426.3)" fill="#E0E9FF"/>
<rect x="2463.66" y="1178.82" width="32.3482" height="32.3482" transform="rotate(-180 2463.66 1178.82)" fill="#E0E9FF"/>
<rect x="2347.89" y="1178.82" width="32.3482" height="32.3482" transform="rotate(-180 2347.89 1178.82)" fill="#5C84E2"/>
<rect x="2232.11" y="1178.82" width="32.3482" height="32.3482" transform="rotate(-180 2232.11 1178.82)" fill="#E0E9FF"/>
<rect x="2116.34" y="1178.82" width="32.3482" height="32.3482" transform="rotate(-180 2116.34 1178.82)" fill="#E0E9FF"/>
<rect x="2000.57" y="1178.82" width="32.3482" height="32.3482" transform="rotate(-180 2000.57 1178.82)" fill="#E0E9FF"/>
<rect x="1884.8" y="1178.82" width="32.3482" height="32.3482" transform="rotate(-180 1884.8 1178.82)" fill="#E0E9FF"/>
<rect x="1769.02" y="1178.82" width="32.3482" height="32.3482" transform="rotate(-180 1769.02 1178.82)" fill="#E0E9FF"/>
<rect x="1653.25" y="1178.82" width="32.3482" height="32.3482" transform="rotate(-180 1653.25 1178.82)" fill="#E0E9FF"/>
<rect x="2463.66" y="1063.05" width="32.3482" height="32.3482" transform="rotate(-180 2463.66 1063.05)" fill="#E0E9FF"/>
<rect x="2347.89" y="1063.05" width="32.3482" height="32.3482" transform="rotate(-180 2347.89 1063.05)" fill="#E0E9FF"/>
<rect x="2232.11" y="1063.05" width="32.3482" height="32.3482" transform="rotate(-180 2232.11 1063.05)" fill="#E0E9FF"/>
<rect x="2116.34" y="1063.05" width="32.3482" height="32.3482" transform="rotate(-180 2116.34 1063.05)" fill="#E0E9FF"/>
<rect x="2000.57" y="1063.05" width="32.3482" height="32.3482" transform="rotate(-180 2000.57 1063.05)" fill="#E0E9FF"/>
<rect x="1884.8" y="1063.05" width="32.3482" height="32.3482" transform="rotate(-180 1884.8 1063.05)" fill="#E0E9FF"/>
<rect x="1769.02" y="1063.05" width="32.3482" height="32.3482" transform="rotate(-180 1769.02 1063.05)" fill="#E0E9FF"/>
<rect x="2463.66" y="947.276" width="32.3482" height="32.3482" transform="rotate(-180 2463.66 947.276)" fill="#E0E9FF"/>
<rect x="2347.89" y="947.276" width="32.3482" height="32.3482" transform="rotate(-180 2347.89 947.276)" fill="#E0E9FF"/>
<rect x="2232.11" y="947.276" width="32.3482" height="32.3482" transform="rotate(-180 2232.11 947.276)" fill="#E0E9FF"/>
<rect x="2116.34" y="947.276" width="32.3482" height="32.3482" transform="rotate(-180 2116.34 947.276)" fill="#E0E9FF"/>
<rect x="553.414" y="947.276" width="32.3482" height="32.3482" transform="rotate(-180 553.414 947.276)" fill="#5C84E2"/>
<rect x="1884.8" y="947.276" width="32.3482" height="32.3482" transform="rotate(-180 1884.8 947.276)" fill="#E0E9FF"/>
<rect x="2463.66" y="831.503" width="32.3482" height="32.3482" transform="rotate(-180 2463.66 831.503)" fill="#E0E9FF"/>
<rect x="2347.89" y="831.503" width="32.3482" height="32.3482" transform="rotate(-180 2347.89 831.503)" fill="#5C84E2"/>
<rect x="2232.11" y="831.503" width="32.3482" height="32.3482" transform="rotate(-180 2232.11 831.503)" fill="#E0E9FF"/>
<rect x="2116.34" y="831.503" width="32.3482" height="32.3482" transform="rotate(-180 2116.34 831.503)" fill="#E0E9FF"/>
<rect x="2000.57" y="831.503" width="32.3482" height="32.3482" transform="rotate(-180 2000.57 831.503)" fill="#96B2F4"/>
<rect x="2463.66" y="715.731" width="32.3482" height="32.3482" transform="rotate(-180 2463.66 715.731)" fill="#E0E9FF"/>
<rect x="2347.89" y="715.731" width="32.3482" height="32.3482" transform="rotate(-180 2347.89 715.731)" fill="#E0E9FF"/>
<rect x="2232.11" y="715.731" width="32.3482" height="32.3482" transform="rotate(-180 2232.11 715.731)" fill="#E0E9FF"/>
<rect x="2116.34" y="715.731" width="32.3482" height="32.3482" transform="rotate(-180 2116.34 715.731)" fill="#E0E9FF"/>
<rect x="2463.66" y="599.959" width="32.3482" height="32.3482" transform="rotate(-180 2463.66 599.959)" fill="#E0E9FF"/>
<rect x="2347.89" y="599.959" width="32.3482" height="32.3482" transform="rotate(-180 2347.89 599.959)" fill="#E0E9FF"/>
<rect x="2463.66" y="484.186" width="32.3482" height="32.3482" transform="rotate(-180 2463.66 484.186)" fill="#E0E9FF"/>
<rect x="2347.89" y="484.186" width="32.3482" height="32.3482" transform="rotate(-180 2347.89 484.186)" fill="#E0E9FF"/>
<rect x="2463.66" y="368.414" width="32.3482" height="32.3482" transform="rotate(-180 2463.66 368.414)" fill="#E0E9FF"/>
<rect x="611.3" y="1468.25" width="32.3482" height="32.3482" transform="rotate(-180 611.3 1468.25)" fill="#E0E9FF"/>
<rect x="495.527" y="1468.25" width="32.3482" height="32.3482" transform="rotate(-180 495.527 1468.25)" fill="#5C84E2"/>
<rect x="221.419" y="1468.25" width="32.3482" height="32.3482" transform="rotate(-180 221.419 1468.25)" fill="#E0E9FF"/>
<rect x="611.3" y="1352.48" width="32.3482" height="32.3482" transform="rotate(-180 611.3 1352.48)" fill="#E0E9FF"/>
<rect x="403.591" y="1352.48" width="32.3482" height="32.3482" transform="rotate(-180 403.591 1352.48)" fill="#E0E9FF"/>
<rect x="510.851" y="1236.71" width="32.3482" height="32.3482" transform="rotate(-180 510.851 1236.71)" fill="#E0E9FF"/>
<rect x="611.3" y="1526.14" width="32.3482" height="32.3482" transform="rotate(-180 611.3 1526.14)" fill="#E0E9FF"/>
<rect x="495.527" y="1526.14" width="32.3482" height="32.3482" transform="rotate(-180 495.527 1526.14)" fill="#E0E9FF"/>
<rect x="379.755" y="1526.14" width="32.3482" height="32.3482" transform="rotate(-180 379.755 1526.14)" fill="#E0E9FF"/>
<rect x="611.3" y="1410.37" width="32.3482" height="32.3482" transform="rotate(-180 611.3 1410.37)" fill="#E0E9FF"/>
<rect x="495.527" y="1410.37" width="32.3482" height="32.3482" transform="rotate(-180 495.527 1410.37)" fill="#E0E9FF"/>
<rect x="611.3" y="1294.59" width="32.3482" height="32.3482" transform="rotate(-180 611.3 1294.59)" fill="#E0E9FF"/>
<rect x="553.414" y="1468.25" width="32.3482" height="32.3482" transform="rotate(-180 553.414 1468.25)" fill="#E0E9FF"/>
<rect x="437.641" y="1468.25" width="32.3482" height="32.3482" transform="rotate(-180 437.641 1468.25)" fill="#E0E9FF"/>
<rect x="553.414" y="1352.48" width="32.3482" height="32.3482" transform="rotate(-180 553.414 1352.48)" fill="#E0E9FF"/>
<rect x="553.414" y="1526.14" width="32.3482" height="32.3482" transform="rotate(-180 553.414 1526.14)" fill="#E0E9FF"/>
<rect x="180.559" y="1526.14" width="32.3482" height="32.3482" transform="rotate(-180 180.559 1526.14)" fill="#E0E9FF"/>
<rect x="553.414" y="1410.37" width="32.3482" height="32.3482" transform="rotate(-180 553.414 1410.37)" fill="#E0E9FF"/>
<rect x="437.641" y="1410.37" width="32.3482" height="32.3482" transform="rotate(-180 437.641 1410.37)" fill="#E0E9FF"/>
<rect x="553.414" y="1294.59" width="32.3482" height="32.3482" transform="rotate(-180 553.414 1294.59)" fill="#E0E9FF"/>
<rect x="2463.66" y="194.755" width="32.3482" height="32.3482" transform="rotate(-180 2463.66 194.755)" fill="#E0E9FF"/>
<rect x="2347.89" y="194.755" width="32.3482" height="32.3482" transform="rotate(-180 2347.89 194.755)" fill="#E0E9FF"/>
<rect x="2232.11" y="194.755" width="32.3482" height="32.3482" transform="rotate(-180 2232.11 194.755)" fill="#5C84E2"/>
<rect x="2116.34" y="194.755" width="32.3482" height="32.3482" transform="rotate(-180 2116.34 194.755)" fill="#E0E9FF"/>
<rect x="2000.57" y="194.755" width="32.3482" height="32.3482" transform="rotate(-180 2000.57 194.755)" fill="#E0E9FF"/>
<rect x="1884.8" y="194.755" width="32.3482" height="32.3482" transform="rotate(-180 1884.8 194.755)" fill="#E0E9FF"/>
<rect x="1769.02" y="194.755" width="32.3482" height="32.3482" transform="rotate(-180 1769.02 194.755)" fill="#E0E9FF"/>
<rect x="1653.25" y="194.755" width="32.3482" height="32.3482" transform="rotate(-180 1653.25 194.755)" fill="#E0E9FF"/>
<rect x="2463.66" y="78.9827" width="32.3482" height="32.3482" transform="rotate(-180 2463.66 78.9827)" fill="#E0E9FF"/>
<rect x="2347.89" y="78.9827" width="32.3482" height="32.3482" transform="rotate(-180 2347.89 78.9827)" fill="#5C84E2"/>
<rect x="2232.11" y="78.9827" width="32.3482" height="32.3482" transform="rotate(-180 2232.11 78.9827)" fill="#5C84E2"/>
<rect x="2116.34" y="78.9827" width="32.3482" height="32.3482" transform="rotate(-180 2116.34 78.9827)" fill="#E0E9FF"/>
<rect x="2000.57" y="78.9827" width="32.3482" height="32.3482" transform="rotate(-180 2000.57 78.9827)" fill="#E0E9FF"/>
<rect x="1884.8" y="78.9827" width="32.3482" height="32.3482" transform="rotate(-180 1884.8 78.9827)" fill="#5C84E2"/>
<rect x="1535.78" y="78.9827" width="32.3482" height="32.3482" transform="rotate(-180 1535.78 78.9827)" fill="#E0E9FF"/>
<rect x="2463.66" y="252.641" width="32.3482" height="32.3482" transform="rotate(-180 2463.66 252.641)" fill="#E0E9FF"/>
<rect x="2347.89" y="252.641" width="32.3482" height="32.3482" transform="rotate(-180 2347.89 252.641)" fill="#E0E9FF"/>
<rect x="2232.11" y="252.641" width="32.3482" height="32.3482" transform="rotate(-180 2232.11 252.641)" fill="#E0E9FF"/>
<rect x="2116.34" y="252.641" width="32.3482" height="32.3482" transform="rotate(-180 2116.34 252.641)" fill="#E0E9FF"/>
<rect x="2000.57" y="252.641" width="32.3482" height="32.3482" transform="rotate(-180 2000.57 252.641)" fill="#E0E9FF"/>
<rect x="1884.8" y="252.641" width="32.3482" height="32.3482" transform="rotate(-180 1884.8 252.641)" fill="#E0E9FF"/>
<rect x="1769.02" y="252.641" width="32.3482" height="32.3482" transform="rotate(-180 1769.02 252.641)" fill="#5C84E2"/>
<rect x="1653.25" y="252.641" width="32.3482" height="32.3482" transform="rotate(-180 1653.25 252.641)" fill="#E0E9FF"/>
<rect x="2463.66" y="136.869" width="32.3482" height="32.3482" transform="rotate(-180 2463.66 136.869)" fill="#E0E9FF"/>
<rect x="2347.89" y="136.869" width="32.3482" height="32.3482" transform="rotate(-180 2347.89 136.869)" fill="#E0E9FF"/>
<rect x="2232.11" y="136.869" width="32.3482" height="32.3482" transform="rotate(-180 2232.11 136.869)" fill="#E0E9FF"/>
<rect x="2116.34" y="136.869" width="32.3482" height="32.3482" transform="rotate(-180 2116.34 136.869)" fill="#E0E9FF"/>
<rect x="2000.57" y="136.869" width="32.3482" height="32.3482" transform="rotate(-180 2000.57 136.869)" fill="#E0E9FF"/>
<rect x="1884.8" y="136.869" width="32.3482" height="32.3482" transform="rotate(-180 1884.8 136.869)" fill="#E0E9FF"/>
<rect x="1769.02" y="136.869" width="32.3482" height="32.3482" transform="rotate(-180 1769.02 136.869)" fill="#E0E9FF"/>
<rect x="2347.89" y="21.0964" width="32.3482" height="32.3482" transform="rotate(-180 2347.89 21.0964)" fill="#E0E9FF"/>
<rect x="2232.11" y="21.0964" width="32.3482" height="32.3482" transform="rotate(-180 2232.11 21.0964)" fill="#E0E9FF"/>
<rect x="2116.34" y="21.0964" width="32.3482" height="32.3482" transform="rotate(-180 2116.34 21.0964)" fill="#E0E9FF"/>
<rect x="2000.57" y="21.0964" width="32.3482" height="32.3482" transform="rotate(-180 2000.57 21.0964)" fill="#E0E9FF"/>
<rect x="1884.8" y="21.0964" width="32.3482" height="32.3482" transform="rotate(-180 1884.8 21.0964)" fill="#E0E9FF"/>
<rect x="2405.77" y="194.755" width="32.3482" height="32.3482" transform="rotate(-180 2405.77 194.755)" fill="#96B2F4"/>
<rect x="2290" y="194.755" width="32.3482" height="32.3482" transform="rotate(-180 2290 194.755)" fill="#E0E9FF"/>
<rect x="784.959" y="194.755" width="32.3482" height="32.3482" transform="rotate(-180 784.959 194.755)" fill="#E0E9FF"/>
<rect x="2058.46" y="194.755" width="32.3482" height="32.3482" transform="rotate(-180 2058.46 194.755)" fill="#96B2F4"/>
<rect x="1942.68" y="194.755" width="32.3482" height="32.3482" transform="rotate(-180 1942.68 194.755)" fill="#E0E9FF"/>
<rect x="1826.91" y="194.755" width="32.3482" height="32.3482" transform="rotate(-180 1826.91 194.755)" fill="#5C84E2"/>
<rect x="1711.14" y="194.755" width="32.3482" height="32.3482" transform="rotate(-180 1711.14 194.755)" fill="#5C84E2"/>
<rect x="2405.77" y="78.9827" width="32.3482" height="32.3482" transform="rotate(-180 2405.77 78.9827)" fill="#E0E9FF"/>
<rect x="2290" y="78.9827" width="32.3482" height="32.3482" transform="rotate(-180 2290 78.9827)" fill="#E0E9FF"/>
<rect x="2174.23" y="78.9827" width="32.3482" height="32.3482" transform="rotate(-180 2174.23 78.9827)" fill="#E0E9FF"/>
<rect x="2058.46" y="78.9827" width="32.3482" height="32.3482" transform="rotate(-180 2058.46 78.9827)" fill="#E0E9FF"/>
<rect x="1942.68" y="78.9827" width="32.3482" height="32.3482" transform="rotate(-180 1942.68 78.9827)" fill="#E0E9FF"/>
<rect x="1826.91" y="78.9827" width="32.3482" height="32.3482" transform="rotate(-180 1826.91 78.9827)" fill="#E0E9FF"/>
<rect x="2405.77" y="252.641" width="32.3482" height="32.3482" transform="rotate(-180 2405.77 252.641)" fill="#E0E9FF"/>
<rect x="2290" y="252.641" width="32.3482" height="32.3482" transform="rotate(-180 2290 252.641)" fill="#5C84E2"/>
<rect x="2174.23" y="252.641" width="32.3482" height="32.3482" transform="rotate(-180 2174.23 252.641)" fill="#E0E9FF"/>
<rect x="2058.46" y="252.641" width="32.3482" height="32.3482" transform="rotate(-180 2058.46 252.641)" fill="#E0E9FF"/>
<rect x="1942.68" y="252.641" width="32.3482" height="32.3482" transform="rotate(-180 1942.68 252.641)" fill="#E0E9FF"/>
<rect x="1826.91" y="252.641" width="32.3482" height="32.3482" transform="rotate(-180 1826.91 252.641)" fill="#E0E9FF"/>
<rect x="1711.14" y="252.641" width="32.3482" height="32.3482" transform="rotate(-180 1711.14 252.641)" fill="#E0E9FF"/>
<rect x="1215.7" y="252.641" width="32.3482" height="32.3482" transform="rotate(-180 1215.7 252.641)" fill="#E0E9FF"/>
<rect x="2405.77" y="136.869" width="32.3482" height="32.3482" transform="rotate(-180 2405.77 136.869)" fill="#E0E9FF"/>
<rect x="2290" y="136.869" width="32.3482" height="32.3482" transform="rotate(-180 2290 136.869)" fill="#E0E9FF"/>
<rect x="2174.23" y="136.869" width="32.3482" height="32.3482" transform="rotate(-180 2174.23 136.869)" fill="#E0E9FF"/>
<rect x="2058.46" y="136.869" width="32.3482" height="32.3482" transform="rotate(-180 2058.46 136.869)" fill="#E0E9FF"/>
<rect x="1942.68" y="136.869" width="32.3482" height="32.3482" transform="rotate(-180 1942.68 136.869)" fill="#E0E9FF"/>
<rect x="1273.59" y="136.869" width="32.3482" height="32.3482" transform="rotate(-180 1273.59 136.869)" fill="#E0E9FF"/>
<rect x="1711.14" y="136.869" width="32.3482" height="32.3482" transform="rotate(-180 1711.14 136.869)" fill="#E0E9FF"/>
<rect x="2405.77" y="21.0964" width="32.3482" height="32.3482" transform="rotate(-180 2405.77 21.0964)" fill="#E0E9FF"/>
<rect x="1505.13" y="21.0964" width="32.3482" height="32.3482" transform="rotate(-180 1505.13 21.0964)" fill="#E0E9FF"/>
<rect x="2174.23" y="21.0964" width="32.3482" height="32.3482" transform="rotate(-180 2174.23 21.0964)" fill="#E0E9FF"/>
<rect x="2058.46" y="21.0964" width="32.3482" height="32.3482" transform="rotate(-180 2058.46 21.0964)" fill="#E0E9FF"/>
<rect x="1942.68" y="21.0964" width="32.3482" height="32.3482" transform="rotate(-180 1942.68 21.0964)" fill="#5C84E2"/>
<rect x="1736.68" y="21.0964" width="32.3482" height="32.3482" transform="rotate(-180 1736.68 21.0964)" fill="#E0E9FF"/>
<rect x="2579.43" y="1468.25" width="32.3482" height="32.3482" transform="rotate(-180 2579.43 1468.25)" fill="#E0E9FF"/>
<rect x="2463.66" y="1468.25" width="32.3482" height="32.3482" transform="rotate(-180 2463.66 1468.25)" fill="#5C84E2"/>
<rect x="2347.89" y="1468.25" width="32.3482" height="32.3482" transform="rotate(-180 2347.89 1468.25)" fill="#E0E9FF"/>
<rect x="2579.43" y="1352.48" width="32.3482" height="32.3482" transform="rotate(-180 2579.43 1352.48)" fill="#E0E9FF"/>
<rect x="2463.66" y="1352.48" width="32.3482" height="32.3482" transform="rotate(-180 2463.66 1352.48)" fill="#E0E9FF"/>
<rect x="2579.43" y="1236.71" width="32.3482" height="32.3482" transform="rotate(-180 2579.43 1236.71)" fill="#E0E9FF"/>
<rect x="2579.43" y="1526.14" width="32.3482" height="32.3482" transform="rotate(-180 2579.43 1526.14)" fill="#E0E9FF"/>
<rect x="2463.66" y="1526.14" width="32.3482" height="32.3482" transform="rotate(-180 2463.66 1526.14)" fill="#E0E9FF"/>
<rect x="2347.89" y="1526.14" width="32.3482" height="32.3482" transform="rotate(-180 2347.89 1526.14)" fill="#E0E9FF"/>
<rect x="2579.43" y="1410.37" width="32.3482" height="32.3482" transform="rotate(-180 2579.43 1410.37)" fill="#E0E9FF"/>
<rect x="2463.66" y="1410.37" width="32.3482" height="32.3482" transform="rotate(-180 2463.66 1410.37)" fill="#E0E9FF"/>
<rect x="2579.43" y="1294.59" width="32.3482" height="32.3482" transform="rotate(-180 2579.43 1294.59)" fill="#E0E9FF"/>
<rect x="2521.54" y="1468.25" width="32.3482" height="32.3482" transform="rotate(-180 2521.54 1468.25)" fill="#E0E9FF"/>
<rect x="2405.77" y="1468.25" width="32.3482" height="32.3482" transform="rotate(-180 2405.77 1468.25)" fill="#E0E9FF"/>
<rect x="2521.54" y="1352.48" width="32.3482" height="32.3482" transform="rotate(-180 2521.54 1352.48)" fill="#E0E9FF"/>
<rect x="2521.54" y="1526.14" width="32.3482" height="32.3482" transform="rotate(-180 2521.54 1526.14)" fill="#E0E9FF"/>
<rect x="2405.77" y="1526.14" width="32.3482" height="32.3482" transform="rotate(-180 2405.77 1526.14)" fill="#E0E9FF"/>
<rect x="2290" y="1526.14" width="32.3482" height="32.3482" transform="rotate(-180 2290 1526.14)" fill="#E0E9FF"/>
<rect x="2521.54" y="1410.37" width="32.3482" height="32.3482" transform="rotate(-180 2521.54 1410.37)" fill="#E0E9FF"/>
<rect x="2405.77" y="1410.37" width="32.3482" height="32.3482" transform="rotate(-180 2405.77 1410.37)" fill="#E0E9FF"/>
<rect x="2521.54" y="1294.59" width="32.3482" height="32.3482" transform="rotate(-180 2521.54 1294.59)" fill="#E0E9FF"/>
<rect x="2547.08" y="336.066" width="32.3482" height="32.3482" fill="#E0E9FF"/>
<rect x="2662.86" y="336.066" width="32.3482" height="32.3482" fill="#E0E9FF"/>
<rect x="2778.63" y="336.066" width="32.3482" height="32.3482" fill="#5C84E2"/>
<rect x="2894.4" y="336.066" width="32.3482" height="32.3482" fill="#E0E9FF"/>
<rect x="2547.08" y="451.838" width="32.3482" height="32.3482" fill="#E0E9FF"/>
<rect x="2662.86" y="451.838" width="32.3482" height="32.3482" fill="#5C84E2"/>
<rect x="2778.63" y="451.838" width="32.3482" height="32.3482" fill="#5C84E2"/>
<rect x="2894.4" y="451.838" width="32.3482" height="32.3482" fill="#E0E9FF"/>
<rect x="2547.08" y="567.61" width="32.3482" height="32.3482" fill="#E0E9FF"/>
<rect x="2662.86" y="567.61" width="32.3482" height="32.3482" fill="#5C84E2"/>
<rect x="2778.63" y="567.61" width="32.3482" height="32.3482" fill="#5C84E2"/>
<rect x="2894.4" y="567.61" width="32.3482" height="32.3482" fill="#E0E9FF"/>
<rect x="2547.08" y="683.383" width="32.3482" height="32.3482" fill="#E0E9FF"/>
<rect x="2662.86" y="683.383" width="32.3482" height="32.3482" fill="#E0E9FF"/>
<rect x="2778.63" y="683.383" width="32.3482" height="32.3482" fill="#E0E9FF"/>
<rect x="2894.4" y="683.383" width="32.3482" height="32.3482" fill="#E0E9FF"/>
<rect x="2547.08" y="799.155" width="32.3482" height="32.3482" fill="#E0E9FF"/>
<rect x="2662.86" y="799.155" width="32.3482" height="32.3482" fill="#E0E9FF"/>
<rect x="2778.63" y="799.155" width="32.3482" height="32.3482" fill="#E0E9FF"/>
<rect x="2894.4" y="799.155" width="32.3482" height="32.3482" fill="#5C84E2"/>
<rect x="2547.08" y="914.928" width="32.3482" height="32.3482" fill="#E0E9FF"/>
<rect x="2662.86" y="914.928" width="32.3482" height="32.3482" fill="#5C84E2"/>
<rect x="2778.63" y="914.928" width="32.3482" height="32.3482" fill="#E0E9FF"/>
<rect x="2547.08" y="1030.7" width="32.3482" height="32.3482" fill="#E0E9FF"/>
<rect x="2662.86" y="1030.7" width="32.3482" height="32.3482" fill="#E0E9FF"/>
<rect x="2547.08" y="1146.47" width="32.3482" height="32.3482" fill="#E0E9FF"/>
<rect x="2547.08" y="278.179" width="32.3482" height="32.3482" fill="#E0E9FF"/>
<rect x="2662.86" y="278.179" width="32.3482" height="32.3482" fill="#E0E9FF"/>
<rect x="2778.63" y="278.179" width="32.3482" height="32.3482" fill="#E0E9FF"/>
<rect x="2894.4" y="278.179" width="32.3482" height="32.3482" fill="#E0E9FF"/>
<rect x="2547.08" y="393.952" width="32.3482" height="32.3482" fill="#E0E9FF"/>
<rect x="2662.86" y="393.952" width="32.3482" height="32.3482" fill="#E0E9FF"/>
<rect x="2778.63" y="393.952" width="32.3482" height="32.3482" fill="#E0E9FF"/>
<rect x="2894.4" y="393.952" width="32.3482" height="32.3482" fill="#E0E9FF"/>
<rect x="2547.08" y="509.724" width="32.3482" height="32.3482" fill="#E0E9FF"/>
<rect x="2662.86" y="509.724" width="32.3482" height="32.3482" fill="#E0E9FF"/>
<rect x="2778.63" y="509.724" width="32.3482" height="32.3482" fill="#E0E9FF"/>
<rect x="2894.4" y="509.724" width="32.3482" height="32.3482" fill="#E0E9FF"/>
<rect x="2547.08" y="625.497" width="32.3482" height="32.3482" fill="#E0E9FF"/>
<rect x="2662.86" y="625.497" width="32.3482" height="32.3482" fill="#E0E9FF"/>
<rect x="2778.63" y="625.497" width="32.3482" height="32.3482" fill="#E0E9FF"/>
<rect x="2894.4" y="625.497" width="32.3482" height="32.3482" fill="#E0E9FF"/>
<rect x="2547.08" y="741.269" width="32.3482" height="32.3482" fill="#E0E9FF"/>
<rect x="2662.86" y="741.269" width="32.3482" height="32.3482" fill="#E0E9FF"/>
<rect x="2778.63" y="741.269" width="32.3482" height="32.3482" fill="#5C84E2"/>
<rect x="2894.4" y="741.269" width="32.3482" height="32.3482" fill="#E0E9FF"/>
<rect x="2547.08" y="857.041" width="32.3482" height="32.3482" fill="#E0E9FF"/>
<rect x="2662.86" y="857.041" width="32.3482" height="32.3482" fill="#E0E9FF"/>
<rect x="2778.63" y="857.041" width="32.3482" height="32.3482" fill="#E0E9FF"/>
<rect x="2547.08" y="972.814" width="32.3482" height="32.3482" fill="#E0E9FF"/>
<rect x="2662.86" y="972.814" width="32.3482" height="32.3482" fill="#E0E9FF"/>
<rect x="2547.08" y="1088.59" width="32.3482" height="32.3482" fill="#E0E9FF"/>
<rect x="2604.97" y="336.066" width="32.3482" height="32.3482" fill="#96B2F4"/>
<rect x="2720.74" y="336.066" width="32.3482" height="32.3482" fill="#E0E9FF"/>
<rect x="2836.51" y="336.066" width="32.3482" height="32.3482" fill="#E0E9FF"/>
<rect x="2604.97" y="451.838" width="32.3482" height="32.3482" fill="#E0E9FF"/>
<rect x="2720.74" y="451.838" width="32.3482" height="32.3482" fill="#E0E9FF"/>
<rect x="2836.51" y="451.838" width="32.3482" height="32.3482" fill="#E0E9FF"/>
<rect x="2604.97" y="567.61" width="32.3482" height="32.3482" fill="#E0E9FF"/>
<rect x="2720.74" y="567.61" width="32.3482" height="32.3482" fill="#E0E9FF"/>
<rect x="2836.51" y="567.61" width="32.3482" height="32.3482" fill="#E0E9FF"/>
<rect x="2604.97" y="683.383" width="32.3482" height="32.3482" fill="#E0E9FF"/>
<rect x="2720.74" y="683.383" width="32.3482" height="32.3482" fill="#5C84E2"/>
<rect x="2836.51" y="683.383" width="32.3482" height="32.3482" fill="#E0E9FF"/>
<rect x="2604.97" y="799.155" width="32.3482" height="32.3482" fill="#E0E9FF"/>
<rect x="2720.74" y="799.155" width="32.3482" height="32.3482" fill="#E0E9FF"/>
<rect x="2836.51" y="799.155" width="32.3482" height="32.3482" fill="#E0E9FF"/>
<rect x="2604.97" y="914.928" width="32.3482" height="32.3482" fill="#E0E9FF"/>
<rect x="2720.74" y="914.928" width="32.3482" height="32.3482" fill="#E0E9FF"/>
<rect x="2604.97" y="1030.7" width="32.3482" height="32.3482" fill="#E0E9FF"/>
<rect x="2604.97" y="278.179" width="32.3482" height="32.3482" fill="#E0E9FF"/>
<rect x="2720.74" y="278.179" width="32.3482" height="32.3482" fill="#5C84E2"/>
<rect x="2836.51" y="278.179" width="32.3482" height="32.3482" fill="#E0E9FF"/>
<rect x="2604.97" y="393.952" width="32.3482" height="32.3482" fill="#E0E9FF"/>
<rect x="2720.74" y="393.952" width="32.3482" height="32.3482" fill="#E0E9FF"/>
<rect x="2836.51" y="393.952" width="32.3482" height="32.3482" fill="#E0E9FF"/>
<rect x="2604.97" y="509.724" width="32.3482" height="32.3482" fill="#E0E9FF"/>
<rect x="2720.74" y="509.724" width="32.3482" height="32.3482" fill="#E0E9FF"/>
<rect x="2836.51" y="509.724" width="32.3482" height="32.3482" fill="#E0E9FF"/>
<rect x="2604.97" y="625.497" width="32.3482" height="32.3482" fill="#E0E9FF"/>
<rect x="2720.74" y="625.497" width="32.3482" height="32.3482" fill="#5C84E2"/>
<rect x="2836.51" y="625.497" width="32.3482" height="32.3482" fill="#E0E9FF"/>
<rect x="2604.97" y="741.269" width="32.3482" height="32.3482" fill="#E0E9FF"/>
<rect x="2720.74" y="741.269" width="32.3482" height="32.3482" fill="#E0E9FF"/>
<rect x="2836.51" y="741.269" width="32.3482" height="32.3482" fill="#E0E9FF"/>
<rect x="2604.97" y="857.041" width="32.3482" height="32.3482" fill="#E0E9FF"/>
<rect x="2720.74" y="857.041" width="32.3482" height="32.3482" fill="#E0E9FF"/>
<rect x="2836.51" y="857.041" width="32.3482" height="32.3482" fill="#E0E9FF"/>
<rect x="2604.97" y="972.814" width="32.3482" height="32.3482" fill="#E0E9FF"/>
<rect x="2720.74" y="972.814" width="32.3482" height="32.3482" fill="#E0E9FF"/>
<rect x="2604.97" y="1088.59" width="32.3482" height="32.3482" fill="#E0E9FF"/>
<rect x="636.838" y="1262.24" width="32.3482" height="32.3482" fill="#E0E9FF"/>
<rect x="752.611" y="1262.24" width="32.3482" height="32.3482" fill="#E0E9FF"/>
<rect x="868.383" y="1262.24" width="32.3482" height="32.3482" fill="#5C84E2"/>
<rect x="984.155" y="1262.24" width="32.3482" height="32.3482" fill="#E0E9FF"/>
<rect x="1099.93" y="1262.24" width="32.3482" height="32.3482" fill="#E0E9FF"/>
<rect x="1215.7" y="1262.24" width="32.3482" height="32.3482" fill="#E0E9FF"/>
<rect x="1331.47" y="1262.24" width="32.3482" height="32.3482" fill="#E0E9FF"/>
<rect x="1447.25" y="1262.24" width="32.3482" height="32.3482" fill="#E0E9FF"/>
<rect x="636.838" y="1378.02" width="32.3482" height="32.3482" fill="#E0E9FF"/>
<rect x="752.611" y="1378.02" width="32.3482" height="32.3482" fill="#5C84E2"/>
<rect x="868.383" y="1378.02" width="32.3482" height="32.3482" fill="#5C84E2"/>
<rect x="984.155" y="1378.02" width="32.3482" height="32.3482" fill="#E0E9FF"/>
<rect x="1099.93" y="1378.02" width="32.3482" height="32.3482" fill="#E0E9FF"/>
<rect x="1215.7" y="1378.02" width="32.3482" height="32.3482" fill="#5C84E2"/>
<rect x="1331.47" y="1378.02" width="32.3482" height="32.3482" fill="#E0E9FF"/>
<rect x="636.838" y="1493.79" width="32.3482" height="32.3482" fill="#E0E9FF"/>
<rect x="752.611" y="1493.79" width="32.3482" height="32.3482" fill="#5C84E2"/>
<rect x="868.383" y="1493.79" width="32.3482" height="32.3482" fill="#5C84E2"/>
<rect x="984.155" y="1493.79" width="32.3482" height="32.3482" fill="#E0E9FF"/>
<rect x="1099.93" y="1493.79" width="32.3482" height="32.3482" fill="#E0E9FF"/>
<rect x="1215.7" y="1493.79" width="32.3482" height="32.3482" fill="#E0E9FF"/>
<rect x="636.838" y="1204.36" width="32.3482" height="32.3482" fill="#E0E9FF"/>
<rect x="752.611" y="1204.36" width="32.3482" height="32.3482" fill="#E0E9FF"/>
<rect x="868.383" y="1204.36" width="32.3482" height="32.3482" fill="#E0E9FF"/>
<rect x="984.155" y="1204.36" width="32.3482" height="32.3482" fill="#E0E9FF"/>
<rect x="1099.93" y="1204.36" width="32.3482" height="32.3482" fill="#E0E9FF"/>
<rect x="1215.7" y="1204.36" width="32.3482" height="32.3482" fill="#E0E9FF"/>
<rect x="1331.47" y="1204.36" width="32.3482" height="32.3482" fill="#5C84E2"/>
<rect x="1447.25" y="1204.36" width="32.3482" height="32.3482" fill="#E0E9FF"/>
<rect x="636.838" y="1320.13" width="32.3482" height="32.3482" fill="#E0E9FF"/>
<rect x="868.383" y="1320.13" width="32.3482" height="32.3482" fill="#E0E9FF"/>
<rect x="984.155" y="1320.13" width="32.3482" height="32.3482" fill="#E0E9FF"/>
<rect x="1099.93" y="1320.13" width="32.3482" height="32.3482" fill="#E0E9FF"/>
<rect x="1215.7" y="1320.13" width="32.3482" height="32.3482" fill="#E0E9FF"/>
<rect x="1331.47" y="1320.13" width="32.3482" height="32.3482" fill="#E0E9FF"/>
<rect x="636.838" y="1435.9" width="32.3482" height="32.3482" fill="#E0E9FF"/>
<rect x="752.611" y="1435.9" width="32.3482" height="32.3482" fill="#E0E9FF"/>
<rect x="868.383" y="1435.9" width="32.3482" height="32.3482" fill="#E0E9FF"/>
<rect x="984.155" y="1435.9" width="32.3482" height="32.3482" fill="#E0E9FF"/>
<rect x="1099.93" y="1435.9" width="32.3482" height="32.3482" fill="#E0E9FF"/>
<rect x="1215.7" y="1435.9" width="32.3482" height="32.3482" fill="#E0E9FF"/>
<rect x="694.725" y="1262.24" width="32.3482" height="32.3482" fill="#96B2F4"/>
<rect x="810.497" y="1262.24" width="32.3482" height="32.3482" fill="#E0E9FF"/>
<rect x="926.27" y="1262.24" width="32.3482" height="32.3482" fill="#E0E9FF"/>
<rect x="1042.04" y="1262.24" width="32.3482" height="32.3482" fill="#96B2F4"/>
<rect x="1157.81" y="1262.24" width="32.3482" height="32.3482" fill="#E0E9FF"/>
<rect x="1273.59" y="1262.24" width="32.3482" height="32.3482" fill="#5C84E2"/>
<rect x="1389.36" y="1262.24" width="32.3482" height="32.3482" fill="#5C84E2"/>
<rect x="694.725" y="1378.02" width="32.3482" height="32.3482" fill="#E0E9FF"/>
<rect x="810.497" y="1378.02" width="32.3482" height="32.3482" fill="#E0E9FF"/>
<rect x="926.27" y="1378.02" width="32.3482" height="32.3482" fill="#E0E9FF"/>
<rect x="1042.04" y="1378.02" width="32.3482" height="32.3482" fill="#E0E9FF"/>
<rect x="1157.81" y="1378.02" width="32.3482" height="32.3482" fill="#E0E9FF"/>
<rect x="1273.59" y="1378.02" width="32.3482" height="32.3482" fill="#E0E9FF"/>
<rect x="694.725" y="1493.79" width="32.3482" height="32.3482" fill="#E0E9FF"/>
<rect x="810.497" y="1493.79" width="32.3482" height="32.3482" fill="#E0E9FF"/>
<rect x="926.27" y="1493.79" width="32.3482" height="32.3482" fill="#E0E9FF"/>
<rect x="1042.04" y="1493.79" width="32.3482" height="32.3482" fill="#E0E9FF"/>
<rect x="1157.81" y="1493.79" width="32.3482" height="32.3482" fill="#E0E9FF"/>
<rect x="694.725" y="1204.36" width="32.3482" height="32.3482" fill="#E0E9FF"/>
<rect x="810.497" y="1204.36" width="32.3482" height="32.3482" fill="#5C84E2"/>
<rect x="926.27" y="1204.36" width="32.3482" height="32.3482" fill="#E0E9FF"/>
<rect x="1042.04" y="1204.36" width="32.3482" height="32.3482" fill="#E0E9FF"/>
<rect x="1157.81" y="1204.36" width="32.3482" height="32.3482" fill="#E0E9FF"/>
<rect x="1273.59" y="1204.36" width="32.3482" height="32.3482" fill="#E0E9FF"/>
<rect x="1389.36" y="1204.36" width="32.3482" height="32.3482" fill="#E0E9FF"/>
<rect x="1505.13" y="1204.36" width="32.3482" height="32.3482" fill="#E0E9FF"/>
<rect x="694.725" y="1320.13" width="32.3482" height="32.3482" fill="#E0E9FF"/>
<rect x="810.497" y="1320.13" width="32.3482" height="32.3482" fill="#E0E9FF"/>
<rect x="926.27" y="1320.13" width="32.3482" height="32.3482" fill="#E0E9FF"/>
<rect x="1042.04" y="1320.13" width="32.3482" height="32.3482" fill="#E0E9FF"/>
<rect x="1157.81" y="1320.13" width="32.3482" height="32.3482" fill="#E0E9FF"/>
<rect x="1273.59" y="1320.13" width="32.3482" height="32.3482" fill="#E0E9FF"/>
<rect x="1389.36" y="1320.13" width="32.3482" height="32.3482" fill="#E0E9FF"/>
<rect x="694.725" y="1435.9" width="32.3482" height="32.3482" fill="#E0E9FF"/>
<rect x="810.497" y="1435.9" width="32.3482" height="32.3482" fill="#E0E9FF"/>
<rect x="926.27" y="1435.9" width="32.3482" height="32.3482" fill="#E0E9FF"/>
<rect x="1042.04" y="1435.9" width="32.3482" height="32.3482" fill="#E0E9FF"/>
<rect x="1157.81" y="1435.9" width="32.3482" height="32.3482" fill="#5C84E2"/>
<rect x="1273.59" y="1435.9" width="32.3482" height="32.3482" fill="#E0E9FF"/>
<rect x="2489.2" y="-11.2517" width="32.3482" height="32.3482" fill="#E0E9FF"/>
<rect x="2604.97" y="-11.2517" width="32.3482" height="32.3482" fill="#5C84E2"/>
<rect x="2720.74" y="-11.2517" width="32.3482" height="32.3482" fill="#E0E9FF"/>
<rect x="2489.2" y="104.521" width="32.3482" height="32.3482" fill="#E0E9FF"/>
<rect x="2604.97" y="104.521" width="32.3482" height="32.3482" fill="#E0E9FF"/>
<rect x="2489.2" y="220.293" width="32.3482" height="32.3482" fill="#E0E9FF"/>
<rect x="2489.2" y="46.6345" width="32.3482" height="32.3482" fill="#E0E9FF"/>
<rect x="2604.97" y="46.6345" width="32.3482" height="32.3482" fill="#E0E9FF"/>
<rect x="2489.2" y="162.407" width="32.3482" height="32.3482" fill="#E0E9FF"/>
<rect x="2547.08" y="-11.2517" width="32.3482" height="32.3482" fill="#E0E9FF"/>
<rect x="2662.86" y="-11.2517" width="32.3482" height="32.3482" fill="#E0E9FF"/>
<rect x="2547.08" y="104.521" width="32.3482" height="32.3482" fill="#E0E9FF"/>
<rect x="2547.08" y="46.6345" width="32.3482" height="32.3482" fill="#E0E9FF"/>
<rect x="2662.86" y="46.6345" width="32.3482" height="32.3482" fill="#E0E9FF"/>
<rect x="2547.08" y="162.407" width="32.3482" height="32.3482" fill="#E0E9FF"/>
<rect x="2604.97" y="1262.24" width="32.3482" height="32.3482" fill="#E0E9FF"/>
<rect x="2720.74" y="1262.24" width="32.3482" height="32.3482" fill="#E0E9FF"/>
<rect x="2836.51" y="1262.24" width="32.3482" height="32.3482" fill="#5C84E2"/>
<rect x="2604.97" y="1378.02" width="32.3482" height="32.3482" fill="#E0E9FF"/>
<rect x="2720.74" y="1378.02" width="32.3482" height="32.3482" fill="#5C84E2"/>
<rect x="2836.51" y="1378.02" width="32.3482" height="32.3482" fill="#5C84E2"/>
<rect x="2604.97" y="1493.79" width="32.3482" height="32.3482" fill="#E0E9FF"/>
<rect x="2720.74" y="1493.79" width="32.3482" height="32.3482" fill="#5C84E2"/>
<rect x="2836.51" y="1493.79" width="32.3482" height="32.3482" fill="#5C84E2"/>
<rect x="2604.97" y="1204.36" width="32.3482" height="32.3482" fill="#E0E9FF"/>
<rect x="2720.74" y="1204.36" width="32.3482" height="32.3482" fill="#E0E9FF"/>
<rect x="2836.51" y="1204.36" width="32.3482" height="32.3482" fill="#E0E9FF"/>
<rect x="2604.97" y="1320.13" width="32.3482" height="32.3482" fill="#E0E9FF"/>
<rect x="2720.74" y="1320.13" width="32.3482" height="32.3482" fill="#E0E9FF"/>
<rect x="2836.51" y="1320.13" width="32.3482" height="32.3482" fill="#E0E9FF"/>
<rect x="2604.97" y="1435.9" width="32.3482" height="32.3482" fill="#E0E9FF"/>
<rect x="2720.74" y="1435.9" width="32.3482" height="32.3482" fill="#E0E9FF"/>
<rect x="2836.51" y="1435.9" width="32.3482" height="32.3482" fill="#E0E9FF"/>
<rect x="2662.86" y="1262.24" width="32.3482" height="32.3482" fill="#96B2F4"/>
<rect x="2778.63" y="1262.24" width="32.3482" height="32.3482" fill="#E0E9FF"/>
<rect x="2894.4" y="1262.24" width="32.3482" height="32.3482" fill="#E0E9FF"/>
<rect x="2662.86" y="1378.02" width="32.3482" height="32.3482" fill="#E0E9FF"/>
<rect x="2778.63" y="1378.02" width="32.3482" height="32.3482" fill="#E0E9FF"/>
<rect x="2894.4" y="1378.02" width="32.3482" height="32.3482" fill="#E0E9FF"/>
<rect x="2662.86" y="1493.79" width="32.3482" height="32.3482" fill="#E0E9FF"/>
<rect x="2778.63" y="1493.79" width="32.3482" height="32.3482" fill="#E0E9FF"/>
<rect x="2894.4" y="1493.79" width="32.3482" height="32.3482" fill="#E0E9FF"/>
<rect x="2662.86" y="1204.36" width="32.3482" height="32.3482" fill="#E0E9FF"/>
<rect x="2778.63" y="1204.36" width="32.3482" height="32.3482" fill="#5C84E2"/>
<rect x="2894.4" y="1204.36" width="32.3482" height="32.3482" fill="#E0E9FF"/>
<rect x="2662.86" y="1320.13" width="32.3482" height="32.3482" fill="#E0E9FF"/>
<rect x="2778.63" y="1320.13" width="32.3482" height="32.3482" fill="#E0E9FF"/>
<rect x="2894.4" y="1320.13" width="32.3482" height="32.3482" fill="#E0E9FF"/>
<rect x="2662.86" y="1435.9" width="32.3482" height="32.3482" fill="#E0E9FF"/>
<rect x="2778.63" y="1435.9" width="32.3482" height="32.3482" fill="#E0E9FF"/>
<rect x="2894.4" y="1435.9" width="32.3482" height="32.3482" fill="#E0E9FF"/>
<rect x="1563.02" y="336.066" width="32.3482" height="32.3482" fill="#E0E9FF"/>
<rect x="1678.79" y="336.066" width="32.3482" height="32.3482" fill="#E0E9FF"/>
<rect x="1794.56" y="336.066" width="32.3482" height="32.3482" fill="#5C84E2"/>
<rect x="1910.33" y="336.066" width="32.3482" height="32.3482" fill="#E0E9FF"/>
<rect x="2026.11" y="336.066" width="32.3482" height="32.3482" fill="#E0E9FF"/>
<rect x="2141.88" y="336.066" width="32.3482" height="32.3482" fill="#E0E9FF"/>
<rect x="2257.65" y="336.066" width="32.3482" height="32.3482" fill="#E0E9FF"/>
<rect x="2373.42" y="336.066" width="32.3482" height="32.3482" fill="#E0E9FF"/>
<rect x="1563.02" y="451.838" width="32.3482" height="32.3482" fill="#E0E9FF"/>
<rect x="1678.79" y="451.838" width="32.3482" height="32.3482" fill="#5C84E2"/>
<rect x="1794.56" y="451.838" width="32.3482" height="32.3482" fill="#5C84E2"/>
<rect x="1910.33" y="451.838" width="32.3482" height="32.3482" fill="#E0E9FF"/>
<rect x="2026.11" y="451.838" width="32.3482" height="32.3482" fill="#E0E9FF"/>
<rect x="2141.88" y="451.838" width="32.3482" height="32.3482" fill="#5C84E2"/>
<rect x="2257.65" y="451.838" width="32.3482" height="32.3482" fill="#E0E9FF"/>
<rect x="1563.02" y="567.61" width="32.3482" height="32.3482" fill="#E0E9FF"/>
<rect x="1678.79" y="567.61" width="32.3482" height="32.3482" fill="#5C84E2"/>
<rect x="1794.56" y="567.61" width="32.3482" height="32.3482" fill="#5C84E2"/>
<rect x="1910.33" y="567.61" width="32.3482" height="32.3482" fill="#E0E9FF"/>
<rect x="2026.11" y="567.61" width="32.3482" height="32.3482" fill="#E0E9FF"/>
<rect x="2141.88" y="567.61" width="32.3482" height="32.3482" fill="#E0E9FF"/>
<rect x="1563.02" y="683.383" width="32.3482" height="32.3482" fill="#E0E9FF"/>
<rect x="1678.79" y="683.383" width="32.3482" height="32.3482" fill="#E0E9FF"/>
<rect x="1794.56" y="683.383" width="32.3482" height="32.3482" fill="#E0E9FF"/>
<rect x="1910.33" y="683.383" width="32.3482" height="32.3482" fill="#E0E9FF"/>
<rect x="2026.11" y="683.383" width="32.3482" height="32.3482" fill="#E0E9FF"/>
<rect x="1563.02" y="799.155" width="32.3482" height="32.3482" fill="#E0E9FF"/>
<rect x="1678.79" y="799.155" width="32.3482" height="32.3482" fill="#E0E9FF"/>
<rect x="1794.56" y="799.155" width="32.3482" height="32.3482" fill="#E0E9FF"/>
<rect x="1910.33" y="799.155" width="32.3482" height="32.3482" fill="#5C84E2"/>
<rect x="1563.02" y="914.928" width="32.3482" height="32.3482" fill="#E0E9FF"/>
<rect x="1678.79" y="914.928" width="32.3482" height="32.3482" fill="#5C84E2"/>
<rect x="1794.56" y="914.928" width="32.3482" height="32.3482" fill="#E0E9FF"/>
<rect x="1563.02" y="1030.7" width="32.3482" height="32.3482" fill="#E0E9FF"/>
<rect x="1678.79" y="1030.7" width="32.3482" height="32.3482" fill="#E0E9FF"/>
<rect x="1563.02" y="1146.47" width="32.3482" height="32.3482" fill="#E0E9FF"/>
<rect x="1563.02" y="278.179" width="32.3482" height="32.3482" fill="#E0E9FF"/>
<rect x="1678.79" y="278.179" width="32.3482" height="32.3482" fill="#E0E9FF"/>
<rect x="1794.56" y="278.179" width="32.3482" height="32.3482" fill="#E0E9FF"/>
<rect x="1910.33" y="278.179" width="32.3482" height="32.3482" fill="#E0E9FF"/>
<rect x="1030.12" y="278.179" width="32.3482" height="32.3482" fill="#E0E9FF"/>
<rect x="2141.88" y="278.179" width="32.3482" height="32.3482" fill="#E0E9FF"/>
<rect x="2257.65" y="278.179" width="32.3482" height="32.3482" fill="#5C84E2"/>
<rect x="2373.42" y="278.179" width="32.3482" height="32.3482" fill="#E0E9FF"/>
<rect x="1563.02" y="393.952" width="32.3482" height="32.3482" fill="#E0E9FF"/>
<rect x="1794.56" y="393.952" width="32.3482" height="32.3482" fill="#E0E9FF"/>
<rect x="1910.33" y="393.952" width="32.3482" height="32.3482" fill="#E0E9FF"/>
<rect x="231.634" y="393.952" width="32.3482" height="32.3482" fill="#E0E9FF"/>
<rect x="2141.88" y="393.952" width="32.3482" height="32.3482" fill="#E0E9FF"/>
<rect x="2257.65" y="393.952" width="32.3482" height="32.3482" fill="#E0E9FF"/>
<rect x="1563.02" y="509.724" width="32.3482" height="32.3482" fill="#E0E9FF"/>
<rect x="1678.79" y="509.724" width="32.3482" height="32.3482" fill="#E0E9FF"/>
<rect x="1794.56" y="509.724" width="32.3482" height="32.3482" fill="#E0E9FF"/>
<rect x="1910.33" y="509.724" width="32.3482" height="32.3482" fill="#E0E9FF"/>
<rect x="2026.11" y="509.724" width="32.3482" height="32.3482" fill="#E0E9FF"/>
<rect x="2141.88" y="509.724" width="32.3482" height="32.3482" fill="#E0E9FF"/>
<rect x="1563.02" y="625.497" width="32.3482" height="32.3482" fill="#E0E9FF"/>
<rect x="1678.79" y="625.497" width="32.3482" height="32.3482" fill="#E0E9FF"/>
<rect x="1794.56" y="625.497" width="32.3482" height="32.3482" fill="#E0E9FF"/>
<rect x="1910.33" y="625.497" width="32.3482" height="32.3482" fill="#E0E9FF"/>
<rect x="2026.11" y="625.497" width="32.3482" height="32.3482" fill="#E0E9FF"/>
<rect x="1678.79" y="741.269" width="32.3482" height="32.3482" fill="#E0E9FF"/>
<rect x="1794.56" y="741.269" width="32.3482" height="32.3482" fill="#5C84E2"/>
<rect x="1910.33" y="741.269" width="32.3482" height="32.3482" fill="#E0E9FF"/>
<rect x="1563.02" y="857.041" width="32.3482" height="32.3482" fill="#E0E9FF"/>
<rect x="1678.79" y="857.041" width="32.3482" height="32.3482" fill="#E0E9FF"/>
<rect x="1794.56" y="857.041" width="32.3482" height="32.3482" fill="#E0E9FF"/>
<rect x="1678.79" y="972.814" width="32.3482" height="32.3482" fill="#E0E9FF"/>
<rect x="1563.02" y="1088.59" width="32.3482" height="32.3482" fill="#E0E9FF"/>
<rect x="1620.9" y="336.066" width="32.3482" height="32.3482" fill="#96B2F4"/>
<rect x="1736.68" y="336.066" width="32.3482" height="32.3482" fill="#E0E9FF"/>
<rect x="1852.45" y="336.066" width="32.3482" height="32.3482" fill="#E0E9FF"/>
<rect x="1968.22" y="336.066" width="32.3482" height="32.3482" fill="#96B2F4"/>
<rect x="2083.99" y="336.066" width="32.3482" height="32.3482" fill="#E0E9FF"/>
<rect x="2199.77" y="336.066" width="32.3482" height="32.3482" fill="#5C84E2"/>
<rect x="2315.54" y="336.066" width="32.3482" height="32.3482" fill="#5C84E2"/>
<rect x="1620.9" y="451.838" width="32.3482" height="32.3482" fill="#E0E9FF"/>
<rect x="1736.68" y="451.838" width="32.3482" height="32.3482" fill="#E0E9FF"/>
<rect x="1852.45" y="451.838" width="32.3482" height="32.3482" fill="#E0E9FF"/>
<rect x="1968.22" y="451.838" width="32.3482" height="32.3482" fill="#E0E9FF"/>
<rect x="2083.99" y="451.838" width="32.3482" height="32.3482" fill="#E0E9FF"/>
<rect x="2199.77" y="451.838" width="32.3482" height="32.3482" fill="#E0E9FF"/>
<rect x="1620.9" y="567.61" width="32.3482" height="32.3482" fill="#E0E9FF"/>
<rect x="1736.68" y="567.61" width="32.3482" height="32.3482" fill="#E0E9FF"/>
<rect x="1852.45" y="567.61" width="32.3482" height="32.3482" fill="#E0E9FF"/>
<rect x="1968.22" y="567.61" width="32.3482" height="32.3482" fill="#E0E9FF"/>
<rect x="2083.99" y="567.61" width="32.3482" height="32.3482" fill="#E0E9FF"/>
<rect x="1620.9" y="683.383" width="32.3482" height="32.3482" fill="#E0E9FF"/>
<rect x="1736.68" y="683.383" width="32.3482" height="32.3482" fill="#5C84E2"/>
<rect x="1852.45" y="683.383" width="32.3482" height="32.3482" fill="#E0E9FF"/>
<rect x="1968.22" y="683.383" width="32.3482" height="32.3482" fill="#E0E9FF"/>
<rect x="1620.9" y="799.155" width="32.3482" height="32.3482" fill="#E0E9FF"/>
<rect x="1736.68" y="799.155" width="32.3482" height="32.3482" fill="#E0E9FF"/>
<rect x="1620.9" y="914.928" width="32.3482" height="32.3482" fill="#E0E9FF"/>
<rect x="1736.68" y="914.928" width="32.3482" height="32.3482" fill="#E0E9FF"/>
<rect x="1620.9" y="1030.7" width="32.3482" height="32.3482" fill="#E0E9FF"/>
<rect x="1620.9" y="278.179" width="32.3482" height="32.3482" fill="#E0E9FF"/>
<rect x="1736.68" y="278.179" width="32.3482" height="32.3482" fill="#5C84E2"/>
<rect x="1852.45" y="278.179" width="32.3482" height="32.3482" fill="#E0E9FF"/>
<rect x="1968.22" y="278.179" width="32.3482" height="32.3482" fill="#E0E9FF"/>
<rect x="2083.99" y="278.179" width="32.3482" height="32.3482" fill="#E0E9FF"/>
<rect x="2199.77" y="278.179" width="32.3482" height="32.3482" fill="#E0E9FF"/>
<rect x="2315.54" y="278.179" width="32.3482" height="32.3482" fill="#E0E9FF"/>
<rect x="2431.31" y="278.179" width="32.3482" height="32.3482" fill="#E0E9FF"/>
<rect x="1620.9" y="393.952" width="32.3482" height="32.3482" fill="#E0E9FF"/>
<rect x="1736.68" y="393.952" width="32.3482" height="32.3482" fill="#E0E9FF"/>
<rect x="1852.45" y="393.952" width="32.3482" height="32.3482" fill="#E0E9FF"/>
<rect x="1968.22" y="393.952" width="32.3482" height="32.3482" fill="#E0E9FF"/>
<rect x="2083.99" y="393.952" width="32.3482" height="32.3482" fill="#E0E9FF"/>
<rect x="2199.77" y="393.952" width="32.3482" height="32.3482" fill="#E0E9FF"/>
<rect x="2315.54" y="393.952" width="32.3482" height="32.3482" fill="#E0E9FF"/>
<rect x="1620.9" y="509.724" width="32.3482" height="32.3482" fill="#E0E9FF"/>
<rect x="1736.68" y="509.724" width="32.3482" height="32.3482" fill="#E0E9FF"/>
<rect x="1852.45" y="509.724" width="32.3482" height="32.3482" fill="#E0E9FF"/>
<rect x="1968.22" y="509.724" width="32.3482" height="32.3482" fill="#E0E9FF"/>
<rect x="2083.99" y="509.724" width="32.3482" height="32.3482" fill="#5C84E2"/>
<rect x="2199.77" y="509.724" width="32.3482" height="32.3482" fill="#E0E9FF"/>
<rect x="1620.9" y="625.497" width="32.3482" height="32.3482" fill="#E0E9FF"/>
<rect x="1736.68" y="625.497" width="32.3482" height="32.3482" fill="#5C84E2"/>
<rect x="1852.45" y="625.497" width="32.3482" height="32.3482" fill="#E0E9FF"/>
<rect x="1968.22" y="625.497" width="32.3482" height="32.3482" fill="#E0E9FF"/>
<rect x="2083.99" y="625.497" width="32.3482" height="32.3482" fill="#96B2F4"/>
<rect x="1620.9" y="741.269" width="32.3482" height="32.3482" fill="#E0E9FF"/>
<rect x="1736.68" y="741.269" width="32.3482" height="32.3482" fill="#E0E9FF"/>
<rect x="1852.45" y="741.269" width="32.3482" height="32.3482" fill="#E0E9FF"/>
<rect x="1968.22" y="741.269" width="32.3482" height="32.3482" fill="#E0E9FF"/>
<rect x="1620.9" y="857.041" width="32.3482" height="32.3482" fill="#E0E9FF"/>
<rect x="1736.68" y="857.041" width="32.3482" height="32.3482" fill="#E0E9FF"/>
<rect x="1852.45" y="857.041" width="32.3482" height="32.3482" fill="#E0E9FF"/>
<rect x="1620.9" y="972.814" width="32.3482" height="32.3482" fill="#E0E9FF"/>
<rect x="1736.68" y="972.814" width="32.3482" height="32.3482" fill="#E0E9FF"/>
<rect x="1620.9" y="1088.59" width="32.3482" height="32.3482" fill="#E0E9FF"/>
<rect x="1620.9" y="1262.24" width="32.3482" height="32.3482" fill="#E0E9FF"/>
<rect x="1736.68" y="1262.24" width="32.3482" height="32.3482" fill="#E0E9FF"/>
<rect x="1852.45" y="1262.24" width="32.3482" height="32.3482" fill="#5C84E2"/>
<rect x="1968.22" y="1262.24" width="32.3482" height="32.3482" fill="#E0E9FF"/>
<rect x="2083.99" y="1262.24" width="32.3482" height="32.3482" fill="#E0E9FF"/>
<rect x="2199.77" y="1262.24" width="32.3482" height="32.3482" fill="#E0E9FF"/>
<rect x="2315.54" y="1262.24" width="32.3482" height="32.3482" fill="#E0E9FF"/>
<rect x="2431.31" y="1262.24" width="32.3482" height="32.3482" fill="#E0E9FF"/>
<rect x="1620.9" y="1378.02" width="32.3482" height="32.3482" fill="#E0E9FF"/>
<rect x="1852.45" y="1378.02" width="32.3482" height="32.3482" fill="#5C84E2"/>
<rect x="1968.22" y="1378.02" width="32.3482" height="32.3482" fill="#E0E9FF"/>
<rect x="2083.99" y="1378.02" width="32.3482" height="32.3482" fill="#E0E9FF"/>
<rect x="2199.77" y="1378.02" width="32.3482" height="32.3482" fill="#5C84E2"/>
<rect x="2315.54" y="1378.02" width="32.3482" height="32.3482" fill="#E0E9FF"/>
<rect x="1620.9" y="1493.79" width="32.3482" height="32.3482" fill="#E0E9FF"/>
<rect x="1736.68" y="1493.79" width="32.3482" height="32.3482" fill="#5C84E2"/>
<rect x="1852.45" y="1493.79" width="32.3482" height="32.3482" fill="#5C84E2"/>
<rect x="1968.22" y="1493.79" width="32.3482" height="32.3482" fill="#E0E9FF"/>
<rect x="2083.99" y="1493.79" width="32.3482" height="32.3482" fill="#E0E9FF"/>
<rect x="2199.77" y="1493.79" width="32.3482" height="32.3482" fill="#E0E9FF"/>
<rect x="1620.9" y="1204.36" width="32.3482" height="32.3482" fill="#E0E9FF"/>
<rect x="1736.68" y="1204.36" width="32.3482" height="32.3482" fill="#E0E9FF"/>
<rect x="1852.45" y="1204.36" width="32.3482" height="32.3482" fill="#E0E9FF"/>
<rect x="1968.22" y="1204.36" width="32.3482" height="32.3482" fill="#E0E9FF"/>
<rect x="2083.99" y="1204.36" width="32.3482" height="32.3482" fill="#E0E9FF"/>
<rect x="2199.77" y="1204.36" width="32.3482" height="32.3482" fill="#E0E9FF"/>
<rect x="2315.54" y="1204.36" width="32.3482" height="32.3482" fill="#5C84E2"/>
<rect x="2431.31" y="1204.36" width="32.3482" height="32.3482" fill="#E0E9FF"/>
<rect x="1620.9" y="1320.13" width="32.3482" height="32.3482" fill="#E0E9FF"/>
<rect x="1736.68" y="1320.13" width="32.3482" height="32.3482" fill="#E0E9FF"/>
<rect x="1852.45" y="1320.13" width="32.3482" height="32.3482" fill="#E0E9FF"/>
<rect x="1968.22" y="1320.13" width="32.3482" height="32.3482" fill="#E0E9FF"/>
<rect x="2083.99" y="1320.13" width="32.3482" height="32.3482" fill="#E0E9FF"/>
<rect x="2199.77" y="1320.13" width="32.3482" height="32.3482" fill="#E0E9FF"/>
<rect x="2315.54" y="1320.13" width="32.3482" height="32.3482" fill="#E0E9FF"/>
<rect x="1620.9" y="1435.9" width="32.3482" height="32.3482" fill="#E0E9FF"/>
<rect x="1736.68" y="1435.9" width="32.3482" height="32.3482" fill="#E0E9FF"/>
<rect x="1852.45" y="1435.9" width="32.3482" height="32.3482" fill="#E0E9FF"/>
<rect x="1968.22" y="1435.9" width="32.3482" height="32.3482" fill="#E0E9FF"/>
<rect x="2083.99" y="1435.9" width="32.3482" height="32.3482" fill="#E0E9FF"/>
<rect x="2199.77" y="1435.9" width="32.3482" height="32.3482" fill="#E0E9FF"/>
<rect x="1794.56" y="1262.24" width="32.3482" height="32.3482" fill="#E0E9FF"/>
<rect x="1910.33" y="1262.24" width="32.3482" height="32.3482" fill="#E0E9FF"/>
<rect x="2026.11" y="1262.24" width="32.3482" height="32.3482" fill="#96B2F4"/>
<rect x="2141.88" y="1262.24" width="32.3482" height="32.3482" fill="#E0E9FF"/>
<rect x="2257.65" y="1262.24" width="32.3482" height="32.3482" fill="#5C84E2"/>
<rect x="2373.42" y="1262.24" width="32.3482" height="32.3482" fill="#5C84E2"/>
<rect x="1678.79" y="1378.02" width="32.3482" height="32.3482" fill="#E0E9FF"/>
<rect x="1794.56" y="1378.02" width="32.3482" height="32.3482" fill="#E0E9FF"/>
<rect x="1910.33" y="1378.02" width="32.3482" height="32.3482" fill="#E0E9FF"/>
<rect x="2026.11" y="1378.02" width="32.3482" height="32.3482" fill="#E0E9FF"/>
<rect x="2141.88" y="1378.02" width="32.3482" height="32.3482" fill="#E0E9FF"/>
<rect x="2257.65" y="1378.02" width="32.3482" height="32.3482" fill="#E0E9FF"/>
<rect x="1678.79" y="1493.79" width="32.3482" height="32.3482" fill="#E0E9FF"/>
<rect x="1794.56" y="1493.79" width="32.3482" height="32.3482" fill="#E0E9FF"/>
<rect x="1910.33" y="1493.79" width="32.3482" height="32.3482" fill="#E0E9FF"/>
<rect x="2026.11" y="1493.79" width="32.3482" height="32.3482" fill="#E0E9FF"/>
<rect x="2141.88" y="1493.79" width="32.3482" height="32.3482" fill="#E0E9FF"/>
<rect x="1678.79" y="1204.36" width="32.3482" height="32.3482" fill="#E0E9FF"/>
<rect x="1794.56" y="1204.36" width="32.3482" height="32.3482" fill="#5C84E2"/>
<rect x="1910.33" y="1204.36" width="32.3482" height="32.3482" fill="#E0E9FF"/>
<rect x="2026.11" y="1204.36" width="32.3482" height="32.3482" fill="#E0E9FF"/>
<rect x="2141.88" y="1204.36" width="32.3482" height="32.3482" fill="#E0E9FF"/>
<rect x="2257.65" y="1204.36" width="32.3482" height="32.3482" fill="#E0E9FF"/>
<rect x="2373.42" y="1204.36" width="32.3482" height="32.3482" fill="#E0E9FF"/>
<rect x="2489.2" y="1204.36" width="32.3482" height="32.3482" fill="#E0E9FF"/>
<rect x="1678.79" y="1320.13" width="32.3482" height="32.3482" fill="#E0E9FF"/>
<rect x="1794.56" y="1320.13" width="32.3482" height="32.3482" fill="#E0E9FF"/>
<rect x="1910.33" y="1320.13" width="32.3482" height="32.3482" fill="#E0E9FF"/>
<rect x="2026.11" y="1320.13" width="32.3482" height="32.3482" fill="#E0E9FF"/>
<rect x="2141.88" y="1320.13" width="32.3482" height="32.3482" fill="#E0E9FF"/>
<rect x="2257.65" y="1320.13" width="32.3482" height="32.3482" fill="#E0E9FF"/>
<rect x="2373.42" y="1320.13" width="32.3482" height="32.3482" fill="#E0E9FF"/>
<rect x="1678.79" y="1435.9" width="32.3482" height="32.3482" fill="#E0E9FF"/>
<rect x="1794.56" y="1435.9" width="32.3482" height="32.3482" fill="#E0E9FF"/>
<rect x="1910.33" y="1435.9" width="32.3482" height="32.3482" fill="#E0E9FF"/>
<rect x="2026.11" y="1435.9" width="32.3482" height="32.3482" fill="#E0E9FF"/>
<rect x="2141.88" y="1435.9" width="32.3482" height="32.3482" fill="#5C84E2"/>
<rect x="2257.65" y="1435.9" width="32.3482" height="32.3482" fill="#E0E9FF"/>
<rect x="1537.48" y="1120.93" width="32.3482" height="32.3482" transform="rotate(-180 1537.48 1120.93)" fill="#E0E9FF"/>
<rect x="1421.71" y="1120.93" width="32.3482" height="32.3482" transform="rotate(-180 1421.71 1120.93)" fill="#E0E9FF"/>
<rect x="1305.93" y="1120.93" width="32.3482" height="32.3482" transform="rotate(-180 1305.93 1120.93)" fill="#5C84E2"/>
<rect x="1190.16" y="1120.93" width="32.3482" height="32.3482" transform="rotate(-180 1190.16 1120.93)" fill="#E0E9FF"/>
<rect x="1074.39" y="1120.93" width="32.3482" height="32.3482" transform="rotate(-180 1074.39 1120.93)" fill="#E0E9FF"/>
<rect x="958.618" y="1120.93" width="32.3482" height="32.3482" transform="rotate(-180 958.618 1120.93)" fill="#E0E9FF"/>
<rect x="842.845" y="1120.93" width="32.3482" height="32.3482" transform="rotate(-180 842.845 1120.93)" fill="#E0E9FF"/>
<rect x="727.073" y="1120.93" width="32.3482" height="32.3482" transform="rotate(-180 727.073 1120.93)" fill="#E0E9FF"/>
<rect x="1537.48" y="1005.16" width="32.3482" height="32.3482" transform="rotate(-180 1537.48 1005.16)" fill="#E0E9FF"/>
<rect x="1421.71" y="1005.16" width="32.3482" height="32.3482" transform="rotate(-180 1421.71 1005.16)" fill="#5C84E2"/>
<rect x="1305.93" y="1005.16" width="32.3482" height="32.3482" transform="rotate(-180 1305.93 1005.16)" fill="#5C84E2"/>
<rect x="1190.16" y="1005.16" width="32.3482" height="32.3482" transform="rotate(-180 1190.16 1005.16)" fill="#E0E9FF"/>
<rect x="1074.39" y="1005.16" width="32.3482" height="32.3482" transform="rotate(-180 1074.39 1005.16)" fill="#E0E9FF"/>
<rect x="958.618" y="1005.16" width="32.3482" height="32.3482" transform="rotate(-180 958.618 1005.16)" fill="#5C84E2"/>
<rect x="842.845" y="1005.16" width="32.3482" height="32.3482" transform="rotate(-180 842.845 1005.16)" fill="#E0E9FF"/>
<rect x="1537.48" y="889.39" width="32.3482" height="32.3482" transform="rotate(-180 1537.48 889.39)" fill="#E0E9FF"/>
<rect x="1421.71" y="889.39" width="32.3482" height="32.3482" transform="rotate(-180 1421.71 889.39)" fill="#5C84E2"/>
<rect x="1305.93" y="889.39" width="32.3482" height="32.3482" transform="rotate(-180 1305.93 889.39)" fill="#5C84E2"/>
<rect x="1190.16" y="889.39" width="32.3482" height="32.3482" transform="rotate(-180 1190.16 889.39)" fill="#E0E9FF"/>
<rect x="1074.39" y="889.39" width="32.3482" height="32.3482" transform="rotate(-180 1074.39 889.39)" fill="#E0E9FF"/>
<rect x="958.618" y="889.39" width="32.3482" height="32.3482" transform="rotate(-180 958.618 889.39)" fill="#E0E9FF"/>
<rect x="1537.48" y="773.617" width="32.3482" height="32.3482" transform="rotate(-180 1537.48 773.617)" fill="#E0E9FF"/>
<rect x="1421.71" y="773.617" width="32.3482" height="32.3482" transform="rotate(-180 1421.71 773.617)" fill="#E0E9FF"/>
<rect x="1305.93" y="773.617" width="32.3482" height="32.3482" transform="rotate(-180 1305.93 773.617)" fill="#E0E9FF"/>
<rect x="1190.16" y="773.617" width="32.3482" height="32.3482" transform="rotate(-180 1190.16 773.617)" fill="#E0E9FF"/>
<rect x="1074.39" y="773.617" width="32.3482" height="32.3482" transform="rotate(-180 1074.39 773.617)" fill="#E0E9FF"/>
<rect x="1537.48" y="657.845" width="32.3482" height="32.3482" transform="rotate(-180 1537.48 657.845)" fill="#E0E9FF"/>
<rect x="1305.93" y="657.845" width="32.3482" height="32.3482" transform="rotate(-180 1305.93 657.845)" fill="#E0E9FF"/>
<rect x="1190.16" y="657.845" width="32.3482" height="32.3482" transform="rotate(-180 1190.16 657.845)" fill="#5C84E2"/>
<rect x="1537.48" y="542.072" width="32.3482" height="32.3482" transform="rotate(-180 1537.48 542.072)" fill="#E0E9FF"/>
<rect x="1421.71" y="542.072" width="32.3482" height="32.3482" transform="rotate(-180 1421.71 542.072)" fill="#5C84E2"/>
<rect x="956.915" y="542.072" width="32.3482" height="32.3482" transform="rotate(-180 956.915 542.072)" fill="#E0E9FF"/>
<rect x="1537.48" y="426.3" width="32.3482" height="32.3482" transform="rotate(-180 1537.48 426.3)" fill="#E0E9FF"/>
<rect x="1290.61" y="426.3" width="32.3482" height="32.3482" transform="rotate(-180 1290.61 426.3)" fill="#E0E9FF"/>
<rect x="1537.48" y="310.527" width="32.3482" height="32.3482" transform="rotate(-180 1537.48 310.527)" fill="#E0E9FF"/>
<rect x="1537.48" y="1178.82" width="32.3482" height="32.3482" transform="rotate(-180 1537.48 1178.82)" fill="#E0E9FF"/>
<rect x="1421.71" y="1178.82" width="32.3482" height="32.3482" transform="rotate(-180 1421.71 1178.82)" fill="#E0E9FF"/>
<rect x="1305.93" y="1178.82" width="32.3482" height="32.3482" transform="rotate(-180 1305.93 1178.82)" fill="#E0E9FF"/>
<rect x="1190.16" y="1178.82" width="32.3482" height="32.3482" transform="rotate(-180 1190.16 1178.82)" fill="#E0E9FF"/>
<rect x="1074.39" y="1178.82" width="32.3482" height="32.3482" transform="rotate(-180 1074.39 1178.82)" fill="#E0E9FF"/>
<rect x="958.618" y="1178.82" width="32.3482" height="32.3482" transform="rotate(-180 958.618 1178.82)" fill="#E0E9FF"/>
<rect x="842.845" y="1178.82" width="32.3482" height="32.3482" transform="rotate(-180 842.845 1178.82)" fill="#5C84E2"/>
<rect x="727.073" y="1178.82" width="32.3482" height="32.3482" transform="rotate(-180 727.073 1178.82)" fill="#E0E9FF"/>
<rect x="1537.48" y="1063.05" width="32.3482" height="32.3482" transform="rotate(-180 1537.48 1063.05)" fill="#E0E9FF"/>
<rect x="1421.71" y="1063.05" width="32.3482" height="32.3482" transform="rotate(-180 1421.71 1063.05)" fill="#E0E9FF"/>
<rect x="1305.93" y="1063.05" width="32.3482" height="32.3482" transform="rotate(-180 1305.93 1063.05)" fill="#E0E9FF"/>
<rect x="1190.16" y="1063.05" width="32.3482" height="32.3482" transform="rotate(-180 1190.16 1063.05)" fill="#E0E9FF"/>
<rect x="1074.39" y="1063.05" width="32.3482" height="32.3482" transform="rotate(-180 1074.39 1063.05)" fill="#E0E9FF"/>
<rect x="958.618" y="1063.05" width="32.3482" height="32.3482" transform="rotate(-180 958.618 1063.05)" fill="#E0E9FF"/>
<rect x="842.845" y="1063.05" width="32.3482" height="32.3482" transform="rotate(-180 842.845 1063.05)" fill="#E0E9FF"/>
<rect x="1537.48" y="947.276" width="32.3482" height="32.3482" transform="rotate(-180 1537.48 947.276)" fill="#E0E9FF"/>
<rect x="1421.71" y="947.276" width="32.3482" height="32.3482" transform="rotate(-180 1421.71 947.276)" fill="#E0E9FF"/>
<rect x="1305.93" y="947.276" width="32.3482" height="32.3482" transform="rotate(-180 1305.93 947.276)" fill="#E0E9FF"/>
<rect x="1190.16" y="947.276" width="32.3482" height="32.3482" transform="rotate(-180 1190.16 947.276)" fill="#E0E9FF"/>
<rect x="1074.39" y="947.276" width="32.3482" height="32.3482" transform="rotate(-180 1074.39 947.276)" fill="#E0E9FF"/>
<rect x="958.618" y="947.276" width="32.3482" height="32.3482" transform="rotate(-180 958.618 947.276)" fill="#E0E9FF"/>
<rect x="1537.48" y="831.503" width="32.3482" height="32.3482" transform="rotate(-180 1537.48 831.503)" fill="#E0E9FF"/>
<rect x="1421.71" y="831.503" width="32.3482" height="32.3482" transform="rotate(-180 1421.71 831.503)" fill="#E0E9FF"/>
<rect x="1305.93" y="831.503" width="32.3482" height="32.3482" transform="rotate(-180 1305.93 831.503)" fill="#E0E9FF"/>
<rect x="1190.16" y="831.503" width="32.3482" height="32.3482" transform="rotate(-180 1190.16 831.503)" fill="#E0E9FF"/>
<rect x="1537.48" y="715.731" width="32.3482" height="32.3482" transform="rotate(-180 1537.48 715.731)" fill="#E0E9FF"/>
<rect x="1421.71" y="715.731" width="32.3482" height="32.3482" transform="rotate(-180 1421.71 715.731)" fill="#E0E9FF"/>
<rect x="1305.93" y="715.731" width="32.3482" height="32.3482" transform="rotate(-180 1305.93 715.731)" fill="#5C84E2"/>
<rect x="1190.16" y="715.731" width="32.3482" height="32.3482" transform="rotate(-180 1190.16 715.731)" fill="#E0E9FF"/>
<rect x="1537.48" y="599.959" width="32.3482" height="32.3482" transform="rotate(-180 1537.48 599.959)" fill="#E0E9FF"/>
<rect x="1421.71" y="599.959" width="32.3482" height="32.3482" transform="rotate(-180 1421.71 599.959)" fill="#E0E9FF"/>
<rect x="1305.93" y="599.959" width="32.3482" height="32.3482" transform="rotate(-180 1305.93 599.959)" fill="#E0E9FF"/>
<rect x="1537.48" y="484.186" width="32.3482" height="32.3482" transform="rotate(-180 1537.48 484.186)" fill="#E0E9FF"/>
<rect x="1421.71" y="484.186" width="32.3482" height="32.3482" transform="rotate(-180 1421.71 484.186)" fill="#E0E9FF"/>
<rect x="1537.48" y="368.414" width="32.3482" height="32.3482" transform="rotate(-180 1537.48 368.414)" fill="#E0E9FF"/>
<rect x="452.964" y="1120.93" width="32.3482" height="32.3482" transform="rotate(-180 452.964 1120.93)" fill="#96B2F4"/>
<rect x="1363.82" y="1120.93" width="32.3482" height="32.3482" transform="rotate(-180 1363.82 1120.93)" fill="#E0E9FF"/>
<rect x="1248.05" y="1120.93" width="32.3482" height="32.3482" transform="rotate(-180 1248.05 1120.93)" fill="#E0E9FF"/>
<rect x="1132.28" y="1120.93" width="32.3482" height="32.3482" transform="rotate(-180 1132.28 1120.93)" fill="#96B2F4"/>
<rect x="1016.5" y="1120.93" width="32.3482" height="32.3482" transform="rotate(-180 1016.5 1120.93)" fill="#E0E9FF"/>
<rect x="900.731" y="1120.93" width="32.3482" height="32.3482" transform="rotate(-180 900.731 1120.93)" fill="#5C84E2"/>
<rect x="784.959" y="1120.93" width="32.3482" height="32.3482" transform="rotate(-180 784.959 1120.93)" fill="#5C84E2"/>
<rect x="1479.59" y="1005.16" width="32.3482" height="32.3482" transform="rotate(-180 1479.59 1005.16)" fill="#E0E9FF"/>
<rect x="1363.82" y="1005.16" width="32.3482" height="32.3482" transform="rotate(-180 1363.82 1005.16)" fill="#E0E9FF"/>
<rect x="1248.05" y="1005.16" width="32.3482" height="32.3482" transform="rotate(-180 1248.05 1005.16)" fill="#E0E9FF"/>
<rect x="1016.5" y="1005.16" width="32.3482" height="32.3482" transform="rotate(-180 1016.5 1005.16)" fill="#E0E9FF"/>
<rect x="900.731" y="1005.16" width="32.3482" height="32.3482" transform="rotate(-180 900.731 1005.16)" fill="#E0E9FF"/>
<rect x="1479.59" y="889.39" width="32.3482" height="32.3482" transform="rotate(-180 1479.59 889.39)" fill="#E0E9FF"/>
<rect x="1363.82" y="889.39" width="32.3482" height="32.3482" transform="rotate(-180 1363.82 889.39)" fill="#E0E9FF"/>
<rect x="1248.05" y="889.39" width="32.3482" height="32.3482" transform="rotate(-180 1248.05 889.39)" fill="#E0E9FF"/>
<rect x="1132.28" y="889.39" width="32.3482" height="32.3482" transform="rotate(-180 1132.28 889.39)" fill="#E0E9FF"/>
<rect x="1016.5" y="889.39" width="32.3482" height="32.3482" transform="rotate(-180 1016.5 889.39)" fill="#E0E9FF"/>
<rect x="1479.59" y="773.617" width="32.3482" height="32.3482" transform="rotate(-180 1479.59 773.617)" fill="#E0E9FF"/>
<rect x="1363.82" y="773.617" width="32.3482" height="32.3482" transform="rotate(-180 1363.82 773.617)" fill="#5C84E2"/>
<rect x="1248.05" y="773.617" width="32.3482" height="32.3482" transform="rotate(-180 1248.05 773.617)" fill="#E0E9FF"/>
<rect x="1132.28" y="773.617" width="32.3482" height="32.3482" transform="rotate(-180 1132.28 773.617)" fill="#E0E9FF"/>
<rect x="1479.59" y="657.845" width="32.3482" height="32.3482" transform="rotate(-180 1479.59 657.845)" fill="#E0E9FF"/>
<rect x="1363.82" y="657.845" width="32.3482" height="32.3482" transform="rotate(-180 1363.82 657.845)" fill="#E0E9FF"/>
<rect x="1248.05" y="657.845" width="32.3482" height="32.3482" transform="rotate(-180 1248.05 657.845)" fill="#E0E9FF"/>
<rect x="1479.59" y="542.072" width="32.3482" height="32.3482" transform="rotate(-180 1479.59 542.072)" fill="#E0E9FF"/>
<rect x="1363.82" y="542.072" width="32.3482" height="32.3482" transform="rotate(-180 1363.82 542.072)" fill="#E0E9FF"/>
<rect x="1479.59" y="426.3" width="32.3482" height="32.3482" transform="rotate(-180 1479.59 426.3)" fill="#E0E9FF"/>
<rect x="1479.59" y="1178.82" width="32.3482" height="32.3482" transform="rotate(-180 1479.59 1178.82)" fill="#E0E9FF"/>
<rect x="1363.82" y="1178.82" width="32.3482" height="32.3482" transform="rotate(-180 1363.82 1178.82)" fill="#5C84E2"/>
<rect x="1248.05" y="1178.82" width="32.3482" height="32.3482" transform="rotate(-180 1248.05 1178.82)" fill="#E0E9FF"/>
<rect x="1132.28" y="1178.82" width="32.3482" height="32.3482" transform="rotate(-180 1132.28 1178.82)" fill="#E0E9FF"/>
<rect x="1016.5" y="1178.82" width="32.3482" height="32.3482" transform="rotate(-180 1016.5 1178.82)" fill="#E0E9FF"/>
<rect x="900.731" y="1178.82" width="32.3482" height="32.3482" transform="rotate(-180 900.731 1178.82)" fill="#E0E9FF"/>
<rect x="784.959" y="1178.82" width="32.3482" height="32.3482" transform="rotate(-180 784.959 1178.82)" fill="#E0E9FF"/>
<rect x="304.844" y="1178.82" width="32.3482" height="32.3482" transform="rotate(-180 304.844 1178.82)" fill="#E0E9FF"/>
<rect x="1479.59" y="1063.05" width="32.3482" height="32.3482" transform="rotate(-180 1479.59 1063.05)" fill="#E0E9FF"/>
<rect x="1363.82" y="1063.05" width="32.3482" height="32.3482" transform="rotate(-180 1363.82 1063.05)" fill="#E0E9FF"/>
<rect x="1248.05" y="1063.05" width="32.3482" height="32.3482" transform="rotate(-180 1248.05 1063.05)" fill="#E0E9FF"/>
<rect x="1132.28" y="1063.05" width="32.3482" height="32.3482" transform="rotate(-180 1132.28 1063.05)" fill="#E0E9FF"/>
<rect x="1016.5" y="1063.05" width="32.3482" height="32.3482" transform="rotate(-180 1016.5 1063.05)" fill="#E0E9FF"/>
<rect x="900.731" y="1063.05" width="32.3482" height="32.3482" transform="rotate(-180 900.731 1063.05)" fill="#E0E9FF"/>
<rect x="701.535" y="1063.05" width="32.3482" height="32.3482" transform="rotate(-180 701.535 1063.05)" fill="#E0E9FF"/>
<rect x="1479.59" y="947.276" width="32.3482" height="32.3482" transform="rotate(-180 1479.59 947.276)" fill="#E0E9FF"/>
<rect x="1363.82" y="947.276" width="32.3482" height="32.3482" transform="rotate(-180 1363.82 947.276)" fill="#E0E9FF"/>
<rect x="1248.05" y="947.276" width="32.3482" height="32.3482" transform="rotate(-180 1248.05 947.276)" fill="#E0E9FF"/>
<rect x="197.584" y="947.276" width="32.3482" height="32.3482" transform="rotate(-180 197.584 947.276)" fill="#E0E9FF"/>
<rect x="1016.5" y="947.276" width="32.3482" height="32.3482" transform="rotate(-180 1016.5 947.276)" fill="#5C84E2"/>
<rect x="626.623" y="947.276" width="32.3482" height="32.3482" transform="rotate(-180 626.623 947.276)" fill="#E0E9FF"/>
<rect x="1479.59" y="831.503" width="32.3482" height="32.3482" transform="rotate(-180 1479.59 831.503)" fill="#E0E9FF"/>
<rect x="1363.82" y="831.503" width="32.3482" height="32.3482" transform="rotate(-180 1363.82 831.503)" fill="#5C84E2"/>
<rect x="1248.05" y="831.503" width="32.3482" height="32.3482" transform="rotate(-180 1248.05 831.503)" fill="#E0E9FF"/>
<rect x="1132.28" y="831.503" width="32.3482" height="32.3482" transform="rotate(-180 1132.28 831.503)" fill="#E0E9FF"/>
<rect x="1016.5" y="831.503" width="32.3482" height="32.3482" transform="rotate(-180 1016.5 831.503)" fill="#96B2F4"/>
<rect x="1479.59" y="715.731" width="32.3482" height="32.3482" transform="rotate(-180 1479.59 715.731)" fill="#E0E9FF"/>
<rect x="1363.82" y="715.731" width="32.3482" height="32.3482" transform="rotate(-180 1363.82 715.731)" fill="#E0E9FF"/>
<rect x="1248.05" y="715.731" width="32.3482" height="32.3482" transform="rotate(-180 1248.05 715.731)" fill="#E0E9FF"/>
<rect x="801.984" y="715.731" width="32.3482" height="32.3482" transform="rotate(-180 801.984 715.731)" fill="#E0E9FF"/>
<rect x="1479.59" y="599.959" width="32.3482" height="32.3482" transform="rotate(-180 1479.59 599.959)" fill="#E0E9FF"/>
<rect x="1363.82" y="599.959" width="32.3482" height="32.3482" transform="rotate(-180 1363.82 599.959)" fill="#E0E9FF"/>
<rect x="1248.05" y="599.959" width="32.3482" height="32.3482" transform="rotate(-180 1248.05 599.959)" fill="#E0E9FF"/>
<rect x="1479.59" y="484.186" width="32.3482" height="32.3482" transform="rotate(-180 1479.59 484.186)" fill="#E0E9FF"/>
<rect x="1363.82" y="484.186" width="32.3482" height="32.3482" transform="rotate(-180 1363.82 484.186)" fill="#E0E9FF"/>
<rect x="1479.59" y="368.414" width="32.3482" height="32.3482" transform="rotate(-180 1479.59 368.414)" fill="#E0E9FF"/>
<rect x="2926.75" y="1120.93" width="32.3482" height="32.3482" transform="rotate(-180 2926.75 1120.93)" fill="#E0E9FF"/>
<rect x="2810.98" y="1120.93" width="32.3482" height="32.3482" transform="rotate(-180 2810.98 1120.93)" fill="#E0E9FF"/>
<rect x="2695.2" y="1120.93" width="32.3482" height="32.3482" transform="rotate(-180 2695.2 1120.93)" fill="#E0E9FF"/>
<rect x="2926.75" y="1005.16" width="32.3482" height="32.3482" transform="rotate(-180 2926.75 1005.16)" fill="#5C84E2"/>
<rect x="2810.98" y="1005.16" width="32.3482" height="32.3482" transform="rotate(-180 2810.98 1005.16)" fill="#E0E9FF"/>
<rect x="2926.75" y="889.39" width="32.3482" height="32.3482" transform="rotate(-180 2926.75 889.39)" fill="#E0E9FF"/>
<rect x="2926.75" y="1178.82" width="32.3482" height="32.3482" transform="rotate(-180 2926.75 1178.82)" fill="#E0E9FF"/>
<rect x="2810.98" y="1178.82" width="32.3482" height="32.3482" transform="rotate(-180 2810.98 1178.82)" fill="#5C84E2"/>
<rect x="2695.2" y="1178.82" width="32.3482" height="32.3482" transform="rotate(-180 2695.2 1178.82)" fill="#E0E9FF"/>
<rect x="2926.75" y="1063.05" width="32.3482" height="32.3482" transform="rotate(-180 2926.75 1063.05)" fill="#E0E9FF"/>
<rect x="2810.98" y="1063.05" width="32.3482" height="32.3482" transform="rotate(-180 2810.98 1063.05)" fill="#E0E9FF"/>
<rect x="2926.75" y="947.276" width="32.3482" height="32.3482" transform="rotate(-180 2926.75 947.276)" fill="#E0E9FF"/>
<rect x="2868.86" y="1120.93" width="32.3482" height="32.3482" transform="rotate(-180 2868.86 1120.93)" fill="#5C84E2"/>
<rect x="2753.09" y="1120.93" width="32.3482" height="32.3482" transform="rotate(-180 2753.09 1120.93)" fill="#5C84E2"/>
<rect x="2868.86" y="1005.16" width="32.3482" height="32.3482" transform="rotate(-180 2868.86 1005.16)" fill="#E0E9FF"/>
<rect x="2868.86" y="1178.82" width="32.3482" height="32.3482" transform="rotate(-180 2868.86 1178.82)" fill="#E0E9FF"/>
<rect x="2753.09" y="1178.82" width="32.3482" height="32.3482" transform="rotate(-180 2753.09 1178.82)" fill="#E0E9FF"/>
<rect x="2637.32" y="1178.82" width="32.3482" height="32.3482" transform="rotate(-180 2637.32 1178.82)" fill="#E0E9FF"/>
<rect x="2868.86" y="1063.05" width="32.3482" height="32.3482" transform="rotate(-180 2868.86 1063.05)" fill="#E0E9FF"/>
<rect x="2753.09" y="1063.05" width="32.3482" height="32.3482" transform="rotate(-180 2753.09 1063.05)" fill="#E0E9FF"/>
<rect x="2868.86" y="947.276" width="32.3482" height="32.3482" transform="rotate(-180 2868.86 947.276)" fill="#E0E9FF"/>
<rect x="1595.37" y="1468.25" width="32.3482" height="32.3482" transform="rotate(-180 1595.37 1468.25)" fill="#E0E9FF"/>
<rect x="1479.59" y="1468.25" width="32.3482" height="32.3482" transform="rotate(-180 1479.59 1468.25)" fill="#5C84E2"/>
<rect x="1363.82" y="1468.25" width="32.3482" height="32.3482" transform="rotate(-180 1363.82 1468.25)" fill="#E0E9FF"/>
<rect x="1595.37" y="1352.48" width="32.3482" height="32.3482" transform="rotate(-180 1595.37 1352.48)" fill="#E0E9FF"/>
<rect x="1479.59" y="1352.48" width="32.3482" height="32.3482" transform="rotate(-180 1479.59 1352.48)" fill="#E0E9FF"/>
<rect x="1595.37" y="1236.71" width="32.3482" height="32.3482" transform="rotate(-180 1595.37 1236.71)" fill="#E0E9FF"/>
<rect x="1595.37" y="1526.14" width="32.3482" height="32.3482" transform="rotate(-180 1595.37 1526.14)" fill="#E0E9FF"/>
<rect x="1479.59" y="1526.14" width="32.3482" height="32.3482" transform="rotate(-180 1479.59 1526.14)" fill="#E0E9FF"/>
<rect x="1363.82" y="1526.14" width="32.3482" height="32.3482" transform="rotate(-180 1363.82 1526.14)" fill="#E0E9FF"/>
<rect x="1595.37" y="1410.37" width="32.3482" height="32.3482" transform="rotate(-180 1595.37 1410.37)" fill="#E0E9FF"/>
<rect x="1479.59" y="1410.37" width="32.3482" height="32.3482" transform="rotate(-180 1479.59 1410.37)" fill="#E0E9FF"/>
<rect x="1595.37" y="1294.59" width="32.3482" height="32.3482" transform="rotate(-180 1595.37 1294.59)" fill="#E0E9FF"/>
<rect x="1537.48" y="1468.25" width="32.3482" height="32.3482" transform="rotate(-180 1537.48 1468.25)" fill="#E0E9FF"/>
<rect x="1421.71" y="1468.25" width="32.3482" height="32.3482" transform="rotate(-180 1421.71 1468.25)" fill="#E0E9FF"/>
<rect x="1537.48" y="1352.48" width="32.3482" height="32.3482" transform="rotate(-180 1537.48 1352.48)" fill="#E0E9FF"/>
<rect x="1537.48" y="1526.14" width="32.3482" height="32.3482" transform="rotate(-180 1537.48 1526.14)" fill="#E0E9FF"/>
<rect x="1421.71" y="1526.14" width="32.3482" height="32.3482" transform="rotate(-180 1421.71 1526.14)" fill="#E0E9FF"/>
<rect x="1305.93" y="1526.14" width="32.3482" height="32.3482" transform="rotate(-180 1305.93 1526.14)" fill="#E0E9FF"/>
<rect x="1537.48" y="1410.37" width="32.3482" height="32.3482" transform="rotate(-180 1537.48 1410.37)" fill="#E0E9FF"/>
<rect x="1421.71" y="1410.37" width="32.3482" height="32.3482" transform="rotate(-180 1421.71 1410.37)" fill="#E0E9FF"/>
<rect x="1537.48" y="1294.59" width="32.3482" height="32.3482" transform="rotate(-180 1537.48 1294.59)" fill="#E0E9FF"/>
<rect x="2868.86" y="194.755" width="32.3482" height="32.3482" transform="rotate(-180 2868.86 194.755)" fill="#E0E9FF"/>
<rect x="2753.09" y="194.755" width="32.3482" height="32.3482" transform="rotate(-180 2753.09 194.755)" fill="#E0E9FF"/>
<rect x="2637.32" y="194.755" width="32.3482" height="32.3482" transform="rotate(-180 2637.32 194.755)" fill="#E0E9FF"/>
<rect x="2868.86" y="78.9827" width="32.3482" height="32.3482" transform="rotate(-180 2868.86 78.9827)" fill="#5C84E2"/>
<rect x="2753.09" y="78.9827" width="32.3482" height="32.3482" transform="rotate(-180 2753.09 78.9827)" fill="#E0E9FF"/>
<rect x="2868.86" y="252.641" width="32.3482" height="32.3482" transform="rotate(-180 2868.86 252.641)" fill="#E0E9FF"/>
<rect x="2753.09" y="252.641" width="32.3482" height="32.3482" transform="rotate(-180 2753.09 252.641)" fill="#5C84E2"/>
<rect x="2637.32" y="252.641" width="32.3482" height="32.3482" transform="rotate(-180 2637.32 252.641)" fill="#E0E9FF"/>
<rect x="2868.86" y="136.869" width="32.3482" height="32.3482" transform="rotate(-180 2868.86 136.869)" fill="#E0E9FF"/>
<rect x="2753.09" y="136.869" width="32.3482" height="32.3482" transform="rotate(-180 2753.09 136.869)" fill="#E0E9FF"/>
<rect x="2868.86" y="21.0964" width="32.3482" height="32.3482" transform="rotate(-180 2868.86 21.0964)" fill="#E0E9FF"/>
<rect x="2926.75" y="194.755" width="32.3482" height="32.3482" transform="rotate(-180 2926.75 194.755)" fill="#E0E9FF"/>
<rect x="2810.98" y="194.755" width="32.3482" height="32.3482" transform="rotate(-180 2810.98 194.755)" fill="#5C84E2"/>
<rect x="2695.2" y="194.755" width="32.3482" height="32.3482" transform="rotate(-180 2695.2 194.755)" fill="#5C84E2"/>
<rect x="2926.75" y="78.9827" width="32.3482" height="32.3482" transform="rotate(-180 2926.75 78.9827)" fill="#E0E9FF"/>
<rect x="2810.98" y="78.9827" width="32.3482" height="32.3482" transform="rotate(-180 2810.98 78.9827)" fill="#E0E9FF"/>
<rect x="2926.75" y="252.641" width="32.3482" height="32.3482" transform="rotate(-180 2926.75 252.641)" fill="#E0E9FF"/>
<rect x="2810.98" y="252.641" width="32.3482" height="32.3482" transform="rotate(-180 2810.98 252.641)" fill="#E0E9FF"/>
<rect x="2695.2" y="252.641" width="32.3482" height="32.3482" transform="rotate(-180 2695.2 252.641)" fill="#E0E9FF"/>
<rect x="2579.43" y="252.641" width="32.3482" height="32.3482" transform="rotate(-180 2579.43 252.641)" fill="#E0E9FF"/>
<rect x="2926.75" y="136.869" width="32.3482" height="32.3482" transform="rotate(-180 2926.75 136.869)" fill="#E0E9FF"/>
<rect x="2810.98" y="136.869" width="32.3482" height="32.3482" transform="rotate(-180 2810.98 136.869)" fill="#E0E9FF"/>
<rect x="2695.2" y="136.869" width="32.3482" height="32.3482" transform="rotate(-180 2695.2 136.869)" fill="#E0E9FF"/>
<rect x="2926.75" y="21.0964" width="32.3482" height="32.3482" transform="rotate(-180 2926.75 21.0964)" fill="#5C84E2"/>
<rect x="2810.98" y="21.0964" width="32.3482" height="32.3482" transform="rotate(-180 2810.98 21.0964)" fill="#E0E9FF"/>
</g>
</g>
</svg>
